<svg id="visual" viewBox="0 0 900 300" width="900" height="300" xmlns="http://www.w3.org/2000/svg" xmlns:xlink="http://www.w3.org/1999/xlink" version="1.1"><rect x="0" y="0" width="900" height="300" fill="#001220"></rect><path d="M0 84L8.3 92.8C16.7 101.7 33.3 119.3 50 113.3C66.7 107.3 83.3 77.7 100 65.7C116.7 53.7 133.3 59.3 150 64.8C166.7 70.3 183.3 75.7 200 86C216.7 96.3 233.3 111.7 250 104.7C266.7 97.7 283.3 68.3 300 67C316.7 65.7 333.3 92.3 350 100.3C366.7 108.3 383.3 97.7 400 105.3C416.7 113 433.3 139 450 139.7C466.7 140.3 483.3 115.7 500 109.7C516.7 103.7 533.3 116.3 550 110.7C566.7 105 583.3 81 600 82.7C616.7 84.3 633.3 111.7 650 114.2C666.7 116.7 683.3 94.3 700 72.5C716.7 50.7 733.3 29.3 750 29.5C766.7 29.7 783.3 51.3 800 59.5C816.7 67.7 833.3 62.3 850 64.5C866.7 66.7 883.3 76.3 891.7 81.2L900 86L900 301L891.7 301C883.3 301 866.7 301 850 301C833.3 301 816.7 301 800 301C783.3 301 766.7 301 750 301C733.3 301 716.7 301 700 301C683.3 301 666.7 301 650 301C633.3 301 616.7 301 600 301C583.3 301 566.7 301 550 301C533.3 301 516.7 301 500 301C483.3 301 466.7 301 450 301C433.3 301 416.7 301 400 301C383.3 301 366.7 301 350 301C333.3 301 316.7 301 300 301C283.3 301 266.7 301 250 301C233.3 301 216.7 301 200 301C183.3 301 166.7 301 150 301C133.3 301 116.7 301 100 301C83.3 301 66.7 301 50 301C33.3 301 16.7 301 8.3 301L0 301Z" fill="#001122"></path><path d="M0 63L8.3 73.5C16.7 84 33.3 105 50 107.7C66.7 110.3 83.3 94.7 100 88.7C116.7 82.7 133.3 86.3 150 90C166.7 93.7 183.3 97.3 200 92.8C216.7 88.3 233.3 75.7 250 70C266.7 64.3 283.3 65.7 300 74.3C316.7 83 333.3 99 350 97.8C366.7 96.7 383.3 78.3 400 86.5C416.7 94.7 433.3 129.3 450 125.7C466.7 122 483.3 80 500 60.2C516.7 40.3 533.3 42.7 550 63.7C566.7 84.7 583.3 124.3 600 129.2C616.7 134 633.3 104 650 82C666.7 60 683.3 46 700 46.2C716.7 46.3 733.3 60.7 750 82.8C766.7 105 783.3 135 800 148.3C816.7 161.7 833.3 158.3 850 143.2C866.7 128 883.3 101 891.7 87.5L900 74L900 301L891.7 301C883.3 301 866.7 301 850 301C833.3 301 816.7 301 800 301C783.3 301 766.7 301 750 301C733.3 301 716.7 301 700 301C683.3 301 666.7 301 650 301C633.3 301 616.7 301 600 301C583.3 301 566.7 301 550 301C533.3 301 516.7 301 500 301C483.3 301 466.7 301 450 301C433.3 301 416.7 301 400 301C383.3 301 366.7 301 350 301C333.3 301 316.7 301 300 301C283.3 301 266.7 301 250 301C233.3 301 216.7 301 200 301C183.3 301 166.7 301 150 301C133.3 301 116.7 301 100 301C83.3 301 66.7 301 50 301C33.3 301 16.7 301 8.3 301L0 301Z" fill="#071931"></path><path d="M0 71L8.3 73.8C16.7 76.7 33.3 82.3 50 99.5C66.7 116.7 83.3 145.3 100 142.5C116.7 139.7 133.3 105.3 150 99.7C166.7 94 183.3 117 200 136.5C216.7 156 233.3 172 250 162.8C266.7 153.7 283.3 119.3 300 112.7C316.7 106 333.3 127 350 128C366.7 129 383.3 110 400 115.2C416.7 120.3 433.3 149.7 450 162C466.7 174.3 483.3 169.7 500 166.7C516.7 163.7 533.3 162.3 550 162.3C566.7 162.3 583.3 163.7 600 153.5C616.7 143.3 633.3 121.7 650 106.3C666.7 91 683.3 82 700 89C716.7 96 733.3 119 750 121.8C766.7 124.7 783.3 107.3 800 115.5C816.7 123.7 833.3 157.3 850 154.3C866.7 151.3 883.3 111.7 891.7 91.8L900 72L900 301L891.7 301C883.3 301 866.7 301 850 301C833.3 301 816.7 301 800 301C783.3 301 766.7 301 750 301C733.3 301 716.7 301 700 301C683.3 301 666.7 301 650 301C633.3 301 616.7 301 600 301C583.3 301 566.7 301 550 301C533.3 301 516.7 301 500 301C483.3 301 466.7 301 450 301C433.3 301 416.7 301 400 301C383.3 301 366.7 301 350 301C333.3 301 316.7 301 300 301C283.3 301 266.7 301 250 301C233.3 301 216.7 301 200 301C183.3 301 166.7 301 150 301C133.3 301 116.7 301 100 301C83.3 301 66.7 301 50 301C33.3 301 16.7 301 8.3 301L0 301Z" fill="#141f40"></path><path d="M0 108L8.3 112.7C16.7 117.3 33.3 126.7 50 137.8C66.7 149 83.3 162 100 173.2C116.7 184.3 133.3 193.7 150 195.7C166.7 197.7 183.3 192.3 200 179.7C216.7 167 233.3 147 250 146.5C266.7 146 283.3 165 300 167.3C316.7 169.7 333.3 155.3 350 151C366.7 146.7 383.3 152.3 400 159.8C416.7 167.3 433.3 176.7 450 168C466.7 159.3 483.3 132.7 500 128.2C516.7 123.7 533.3 141.3 550 138.2C566.7 135 583.3 111 600 100.7C616.7 90.3 633.3 93.7 650 107.7C666.7 121.7 683.3 146.3 700 152.2C716.7 158 733.3 145 750 130.2C766.7 115.3 783.3 98.7 800 109.8C816.7 121 833.3 160 850 175.5C866.7 191 883.3 183 891.7 179L900 175L900 301L891.7 301C883.3 301 866.7 301 850 301C833.3 301 816.7 301 800 301C783.3 301 766.7 301 750 301C733.3 301 716.7 301 700 301C683.3 301 666.7 301 650 301C633.3 301 616.7 301 600 301C583.3 301 566.7 301 550 301C533.3 301 516.7 301 500 301C483.3 301 466.7 301 450 301C433.3 301 416.7 301 400 301C383.3 301 366.7 301 350 301C333.3 301 316.7 301 300 301C283.3 301 266.7 301 250 301C233.3 301 216.7 301 200 301C183.3 301 166.7 301 150 301C133.3 301 116.7 301 100 301C83.3 301 66.7 301 50 301C33.3 301 16.7 301 8.3 301L0 301Z" fill="#25254e"></path><path d="M0 171L8.3 163.3C16.7 155.7 33.3 140.3 50 144.8C66.7 149.3 83.3 173.7 100 171.7C116.7 169.7 133.3 141.3 150 135.5C166.7 129.7 183.3 146.3 200 162.3C216.7 178.3 233.3 193.7 250 186.8C266.7 180 283.3 151 300 134C316.7 117 333.3 112 350 127.8C366.7 143.7 383.3 180.3 400 186C416.7 191.7 433.3 166.3 450 159.5C466.7 152.7 483.3 164.3 500 172.5C516.7 180.7 533.3 185.3 550 190.2C566.7 195 583.3 200 600 187C616.7 174 633.3 143 650 141.3C666.7 139.7 683.3 167.3 700 181.2C716.7 195 733.3 195 750 192.8C766.7 190.7 783.3 186.3 800 189C816.7 191.7 833.3 201.3 850 203.2C866.7 205 883.3 199 891.7 196L900 193L900 301L891.7 301C883.3 301 866.7 301 850 301C833.3 301 816.7 301 800 301C783.3 301 766.7 301 750 301C733.3 301 716.7 301 700 301C683.3 301 666.7 301 650 301C633.3 301 616.7 301 600 301C583.3 301 566.7 301 550 301C533.3 301 516.7 301 500 301C483.3 301 466.7 301 450 301C433.3 301 416.7 301 400 301C383.3 301 366.7 301 350 301C333.3 301 316.7 301 300 301C283.3 301 266.7 301 250 301C233.3 301 216.7 301 200 301C183.3 301 166.7 301 150 301C133.3 301 116.7 301 100 301C83.3 301 66.7 301 50 301C33.3 301 16.7 301 8.3 301L0 301Z" fill="#39295a"></path><path d="M0 161L8.3 167C16.7 173 33.3 185 50 183.8C66.7 182.7 83.3 168.3 100 166.2C116.7 164 133.3 174 150 170.5C166.7 167 183.3 150 200 149.5C216.7 149 233.3 165 250 169.7C266.7 174.3 283.3 167.7 300 162.7C316.7 157.7 333.3 154.3 350 150.8C366.7 147.3 383.3 143.7 400 150C416.7 156.3 433.3 172.7 450 173.7C466.7 174.7 483.3 160.3 500 163C516.7 165.7 533.3 185.3 550 196.5C566.7 207.7 583.3 210.3 600 212C616.7 213.7 633.3 214.3 650 203.8C666.7 193.3 683.3 171.7 700 161.8C716.7 152 733.3 154 750 154.5C766.7 155 783.3 154 800 161.3C816.7 168.7 833.3 184.3 850 186.8C866.7 189.3 883.3 178.7 891.7 173.3L900 168L900 301L891.7 301C883.3 301 866.7 301 850 301C833.3 301 816.7 301 800 301C783.3 301 766.7 301 750 301C733.3 301 716.7 301 700 301C683.3 301 666.7 301 650 301C633.3 301 616.7 301 600 301C583.3 301 566.7 301 550 301C533.3 301 516.7 301 500 301C483.3 301 466.7 301 450 301C433.3 301 416.7 301 400 301C383.3 301 366.7 301 350 301C333.3 301 316.7 301 300 301C283.3 301 266.7 301 250 301C233.3 301 216.7 301 200 301C183.3 301 166.7 301 150 301C133.3 301 116.7 301 100 301C83.3 301 66.7 301 50 301C33.3 301 16.7 301 8.3 301L0 301Z" fill="#4f2b64"></path><path d="M0 202L8.3 206.5C16.7 211 33.3 220 50 217C66.7 214 83.3 199 100 194.3C116.7 189.7 133.3 195.3 150 198.3C166.7 201.3 183.3 201.7 200 200.7C216.7 199.7 233.3 197.3 250 199.2C266.7 201 283.3 207 300 203C316.7 199 333.3 185 350 177.5C366.7 170 383.3 169 400 171.7C416.7 174.3 433.3 180.7 450 180.3C466.7 180 483.3 173 500 175.5C516.7 178 533.3 190 550 191.7C566.7 193.3 583.3 184.7 600 191.7C616.7 198.7 633.3 221.3 650 223.5C666.7 225.7 683.3 207.3 700 203.7C716.7 200 733.3 211 750 213.5C766.7 216 783.3 210 800 202.2C816.7 194.3 833.3 184.7 850 184.3C866.7 184 883.3 193 891.7 197.5L900 202L900 301L891.7 301C883.3 301 866.7 301 850 301C833.3 301 816.7 301 800 301C783.3 301 766.7 301 750 301C733.3 301 716.7 301 700 301C683.3 301 666.7 301 650 301C633.3 301 616.7 301 600 301C583.3 301 566.7 301 550 301C533.3 301 516.7 301 500 301C483.3 301 466.7 301 450 301C433.3 301 416.7 301 400 301C383.3 301 366.7 301 350 301C333.3 301 316.7 301 300 301C283.3 301 266.7 301 250 301C233.3 301 216.7 301 200 301C183.3 301 166.7 301 150 301C133.3 301 116.7 301 100 301C83.3 301 66.7 301 50 301C33.3 301 16.7 301 8.3 301L0 301Z" fill="#672c6b"></path><path d="M0 182L8.3 192.7C16.7 203.3 33.3 224.7 50 236.7C66.7 248.7 83.3 251.3 100 245.5C116.7 239.7 133.3 225.3 150 213.5C166.7 201.7 183.3 192.3 200 195.3C216.7 198.3 233.3 213.7 250 219.8C266.7 226 283.3 223 300 215C316.7 207 333.3 194 350 193.8C366.7 193.7 383.3 206.3 400 216.5C416.7 226.7 433.3 234.3 450 240.3C466.7 246.3 483.3 250.7 500 246.7C516.7 242.7 533.3 230.3 550 226.7C566.7 223 583.3 228 600 224.2C616.7 220.3 633.3 207.7 650 200.8C666.7 194 683.3 193 700 191.2C716.7 189.3 733.3 186.7 750 190.5C766.7 194.3 783.3 204.7 800 211.8C816.7 219 833.3 223 850 217C866.7 211 883.3 195 891.7 187L900 179L900 301L891.7 301C883.3 301 866.7 301 850 301C833.3 301 816.7 301 800 301C783.3 301 766.7 301 750 301C733.3 301 716.7 301 700 301C683.3 301 666.7 301 650 301C633.3 301 616.7 301 600 301C583.3 301 566.7 301 550 301C533.3 301 516.7 301 500 301C483.3 301 466.7 301 450 301C433.3 301 416.7 301 400 301C383.3 301 366.7 301 350 301C333.3 301 316.7 301 300 301C283.3 301 266.7 301 250 301C233.3 301 216.7 301 200 301C183.3 301 166.7 301 150 301C133.3 301 116.7 301 100 301C83.3 301 66.7 301 50 301C33.3 301 16.7 301 8.3 301L0 301Z" fill="#7f2a6f"></path><path d="M0 242L8.3 236.8C16.7 231.7 33.3 221.3 50 214.8C66.7 208.3 83.3 205.7 100 206.5C116.7 207.3 133.3 211.7 150 217.5C166.7 223.3 183.3 230.7 200 230.7C216.7 230.7 233.3 223.3 250 219.5C266.7 215.7 283.3 215.3 300 221C316.7 226.7 333.3 238.3 350 243.8C366.7 249.3 383.3 248.7 400 243.3C416.7 238 433.3 228 450 230.5C466.7 233 483.3 248 500 249.8C516.7 251.7 533.3 240.3 550 239.2C566.7 238 583.3 247 600 252C616.7 257 633.3 258 650 251.3C666.7 244.7 683.3 230.3 700 231C716.7 231.7 733.3 247.3 750 251.7C766.7 256 783.3 249 800 241.2C816.7 233.3 833.3 224.7 850 226C866.7 227.3 883.3 238.7 891.7 244.3L900 250L900 301L891.7 301C883.3 301 866.7 301 850 301C833.3 301 816.7 301 800 301C783.3 301 766.7 301 750 301C733.3 301 716.7 301 700 301C683.3 301 666.7 301 650 301C633.3 301 616.7 301 600 301C583.3 301 566.7 301 550 301C533.3 301 516.7 301 500 301C483.3 301 466.7 301 450 301C433.3 301 416.7 301 400 301C383.3 301 366.7 301 350 301C333.3 301 316.7 301 300 301C283.3 301 266.7 301 250 301C233.3 301 216.7 301 200 301C183.3 301 166.7 301 150 301C133.3 301 116.7 301 100 301C83.3 301 66.7 301 50 301C33.3 301 16.7 301 8.3 301L0 301Z" fill="#982870"></path><path d="M0 271L8.3 272.7C16.7 274.3 33.3 277.7 50 274.5C66.7 271.3 83.3 261.7 100 254.7C116.7 247.7 133.3 243.3 150 245.5C166.7 247.7 183.3 256.3 200 254.5C216.7 252.7 233.3 240.3 250 234.3C266.7 228.3 283.3 228.7 300 231.3C316.7 234 333.3 239 350 247.5C366.7 256 383.3 268 400 270.2C416.7 272.3 433.3 264.7 450 257.3C466.7 250 483.3 243 500 239C516.7 235 533.3 234 550 238.8C566.7 243.7 583.3 254.3 600 258.8C616.7 263.3 633.3 261.7 650 256.7C666.7 251.7 683.3 243.3 700 242C716.7 240.7 733.3 246.3 750 246.8C766.7 247.3 783.3 242.7 800 246.8C816.7 251 833.3 264 850 268.5C866.7 273 883.3 269 891.7 267L900 265L900 301L891.7 301C883.3 301 866.7 301 850 301C833.3 301 816.7 301 800 301C783.3 301 766.7 301 750 301C733.3 301 716.7 301 700 301C683.3 301 666.7 301 650 301C633.3 301 616.7 301 600 301C583.3 301 566.7 301 550 301C533.3 301 516.7 301 500 301C483.3 301 466.7 301 450 301C433.3 301 416.7 301 400 301C383.3 301 366.7 301 350 301C333.3 301 316.7 301 300 301C283.3 301 266.7 301 250 301C233.3 301 216.7 301 200 301C183.3 301 166.7 301 150 301C133.3 301 116.7 301 100 301C83.3 301 66.7 301 50 301C33.3 301 16.7 301 8.3 301L0 301Z" fill="#af256e"></path><path d="M0 262L8.3 264.3C16.7 266.7 33.3 271.3 50 272.8C66.7 274.3 83.3 272.7 100 275.2C116.7 277.7 133.3 284.3 150 282.8C166.7 281.3 183.3 271.7 200 271.8C216.7 272 233.3 282 250 281.2C266.7 280.3 283.3 268.7 300 266.3C316.7 264 333.3 271 350 276.8C366.7 282.7 383.3 287.3 400 287C416.7 286.7 433.3 281.3 450 281C466.7 280.7 483.3 285.3 500 287.2C516.7 289 533.3 288 550 284.2C566.7 280.3 583.3 273.7 600 271.3C616.7 269 633.3 271 650 275.7C666.7 280.3 683.3 287.7 700 289.3C716.7 291 733.3 287 750 280.3C766.7 273.7 783.3 264.3 800 261.2C816.7 258 833.3 261 850 264.3C866.7 267.7 883.3 271.3 891.7 273.2L900 275L900 301L891.7 301C883.3 301 866.7 301 850 301C833.3 301 816.7 301 800 301C783.3 301 766.7 301 750 301C733.3 301 716.7 301 700 301C683.3 301 666.7 301 650 301C633.3 301 616.7 301 600 301C583.3 301 566.7 301 550 301C533.3 301 516.7 301 500 301C483.3 301 466.7 301 450 301C433.3 301 416.7 301 400 301C383.3 301 366.7 301 350 301C333.3 301 316.7 301 300 301C283.3 301 266.7 301 250 301C233.3 301 216.7 301 200 301C183.3 301 166.7 301 150 301C133.3 301 116.7 301 100 301C83.3 301 66.7 301 50 301C33.3 301 16.7 301 8.3 301L0 301Z" fill="#c62368"></path></svg>