<svg id="visual" viewBox="0 0 900 100" width="900" height="100" xmlns="http://www.w3.org/2000/svg" xmlns:xlink="http://www.w3.org/1999/xlink" version="1.1"><rect x="0" y="0" width="900" height="100" fill="#001220"></rect><path d="M0 46L8.8 45C17.7 44 35.3 42 53 38.3C70.7 34.7 88.3 29.3 106 27.8C123.7 26.3 141.3 28.7 159 31.3C176.7 34 194.3 37 212 37.8C229.7 38.7 247.3 37.3 265 35.7C282.7 34 300.3 32 318 33.2C335.7 34.3 353.3 38.7 371 40.8C388.7 43 406.3 43 423.8 41.7C441.3 40.3 458.7 37.7 476.2 38C493.7 38.3 511.3 41.7 529 43.2C546.7 44.7 564.3 44.3 582 44.3C599.7 44.3 617.3 44.7 635 43.3C652.7 42 670.3 39 688 35.8C705.7 32.7 723.3 29.3 741 29.3C758.7 29.3 776.3 32.7 794 36.7C811.7 40.7 829.3 45.3 847 43.5C864.7 41.7 882.3 33.3 891.2 29.2L900 25L900 101L891.2 101C882.3 101 864.7 101 847 101C829.3 101 811.7 101 794 101C776.3 101 758.7 101 741 101C723.3 101 705.7 101 688 101C670.3 101 652.7 101 635 101C617.3 101 599.7 101 582 101C564.3 101 546.7 101 529 101C511.3 101 493.7 101 476.2 101C458.7 101 441.3 101 423.8 101C406.3 101 388.7 101 371 101C353.3 101 335.7 101 318 101C300.3 101 282.7 101 265 101C247.3 101 229.7 101 212 101C194.3 101 176.7 101 159 101C141.3 101 123.7 101 106 101C88.3 101 70.7 101 53 101C35.3 101 17.7 101 8.8 101L0 101Z" fill="#fa7268"></path><path d="M0 60L8.8 59.5C17.7 59 35.3 58 53 58.2C70.7 58.3 88.3 59.7 106 56.7C123.7 53.7 141.3 46.3 159 43C176.7 39.7 194.3 40.3 212 43.3C229.7 46.3 247.3 51.7 265 54.2C282.7 56.7 300.3 56.3 318 54.5C335.7 52.7 353.3 49.3 371 48.5C388.7 47.7 406.3 49.3 423.8 48.8C441.3 48.3 458.7 45.7 476.2 45.8C493.7 46 511.3 49 529 48.3C546.7 47.7 564.3 43.3 582 43C599.7 42.7 617.3 46.3 635 49.5C652.7 52.7 670.3 55.3 688 53.8C705.7 52.3 723.3 46.7 741 45.8C758.7 45 776.3 49 794 50.5C811.7 52 829.3 51 847 52.8C864.7 54.7 882.3 59.3 891.2 61.7L900 64L900 101L891.2 101C882.3 101 864.7 101 847 101C829.3 101 811.7 101 794 101C776.3 101 758.7 101 741 101C723.3 101 705.7 101 688 101C670.3 101 652.7 101 635 101C617.3 101 599.7 101 582 101C564.3 101 546.7 101 529 101C511.3 101 493.7 101 476.2 101C458.7 101 441.3 101 423.8 101C406.3 101 388.7 101 371 101C353.3 101 335.7 101 318 101C300.3 101 282.7 101 265 101C247.3 101 229.7 101 212 101C194.3 101 176.7 101 159 101C141.3 101 123.7 101 106 101C88.3 101 70.7 101 53 101C35.3 101 17.7 101 8.8 101L0 101Z" fill="#eb5967"></path><path d="M0 63L8.8 62.7C17.7 62.3 35.3 61.7 53 63.2C70.7 64.7 88.3 68.3 106 67.8C123.7 67.3 141.3 62.7 159 63.7C176.7 64.7 194.3 71.3 212 74.7C229.7 78 247.3 78 265 74.3C282.7 70.7 300.3 63.3 318 63.7C335.7 64 353.3 72 371 74.5C388.7 77 406.3 74 423.8 71C441.3 68 458.7 65 476.2 63.5C493.7 62 511.3 62 529 63.5C546.7 65 564.3 68 582 69C599.7 70 617.3 69 635 70C652.7 71 670.3 74 688 74.7C705.7 75.3 723.3 73.7 741 70.5C758.7 67.3 776.3 62.7 794 63.5C811.7 64.3 829.3 70.7 847 70.3C864.7 70 882.3 63 891.2 59.5L900 56L900 101L891.2 101C882.3 101 864.7 101 847 101C829.3 101 811.7 101 794 101C776.3 101 758.7 101 741 101C723.3 101 705.7 101 688 101C670.3 101 652.7 101 635 101C617.3 101 599.7 101 582 101C564.3 101 546.7 101 529 101C511.3 101 493.7 101 476.2 101C458.7 101 441.3 101 423.8 101C406.3 101 388.7 101 371 101C353.3 101 335.7 101 318 101C300.3 101 282.7 101 265 101C247.3 101 229.7 101 212 101C194.3 101 176.7 101 159 101C141.3 101 123.7 101 106 101C88.3 101 70.7 101 53 101C35.3 101 17.7 101 8.8 101L0 101Z" fill="#da3f67"></path><path d="M0 86L8.8 83.8C17.7 81.7 35.3 77.3 53 76.8C70.7 76.3 88.3 79.7 106 79.7C123.7 79.7 141.3 76.3 159 78C176.7 79.7 194.3 86.3 212 86.7C229.7 87 247.3 81 265 77.5C282.7 74 300.3 73 318 76C335.7 79 353.3 86 371 87.3C388.7 88.7 406.3 84.3 423.8 83.8C441.3 83.3 458.7 86.7 476.2 85.5C493.7 84.3 511.3 78.7 529 76.2C546.7 73.7 564.3 74.3 582 77.8C599.7 81.3 617.3 87.7 635 89.8C652.7 92 670.3 90 688 86.8C705.7 83.7 723.3 79.3 741 78C758.7 76.7 776.3 78.3 794 80.7C811.7 83 829.3 86 847 86.2C864.7 86.3 882.3 83.7 891.2 82.3L900 81L900 101L891.2 101C882.3 101 864.7 101 847 101C829.3 101 811.7 101 794 101C776.3 101 758.7 101 741 101C723.3 101 705.7 101 688 101C670.3 101 652.7 101 635 101C617.3 101 599.7 101 582 101C564.3 101 546.7 101 529 101C511.3 101 493.7 101 476.2 101C458.7 101 441.3 101 423.8 101C406.3 101 388.7 101 371 101C353.3 101 335.7 101 318 101C300.3 101 282.7 101 265 101C247.3 101 229.7 101 212 101C194.3 101 176.7 101 159 101C141.3 101 123.7 101 106 101C88.3 101 70.7 101 53 101C35.3 101 17.7 101 8.8 101L0 101Z" fill="#c62368"></path></svg>