<svg id="visual" viewBox="0 0 900 200" width="900" height="200" xmlns="http://www.w3.org/2000/svg" xmlns:xlink="http://www.w3.org/1999/xlink" version="1.1"><rect x="0" y="0" width="900" height="200" fill="#001220"></rect><path d="M0 125L11.5 125.3C23 125.7 46 126.3 69 129.8C92 133.3 115 139.7 138.2 141.5C161.3 143.3 184.7 140.7 207.8 135.7C231 130.7 254 123.3 277 123C300 122.7 323 129.3 346 132C369 134.7 392 133.3 415.2 132.3C438.3 131.3 461.7 130.7 484.8 127.8C508 125 531 120 554 120.3C577 120.7 600 126.3 623 131C646 135.7 669 139.3 692.2 136.3C715.3 133.3 738.7 123.7 761.8 120.8C785 118 808 122 831 123C854 124 877 122 888.5 121L900 120L900 201L888.5 201C877 201 854 201 831 201C808 201 785 201 761.8 201C738.7 201 715.3 201 692.2 201C669 201 646 201 623 201C600 201 577 201 554 201C531 201 508 201 484.8 201C461.7 201 438.3 201 415.2 201C392 201 369 201 346 201C323 201 300 201 277 201C254 201 231 201 207.8 201C184.7 201 161.3 201 138.2 201C115 201 92 201 69 201C46 201 23 201 11.5 201L0 201Z" fill="#fa7268"></path><path d="M0 162L11.5 161.3C23 160.7 46 159.3 69 159.8C92 160.3 115 162.7 138.2 159.8C161.3 157 184.7 149 207.8 148C231 147 254 153 277 156.3C300 159.7 323 160.3 346 160.5C369 160.7 392 160.3 415.2 158.7C438.3 157 461.7 154 484.8 154.3C508 154.7 531 158.3 554 160.2C577 162 600 162 623 162.5C646 163 669 164 692.2 161.5C715.3 159 738.7 153 761.8 150C785 147 808 147 831 147.5C854 148 877 149 888.5 149.5L900 150L900 201L888.5 201C877 201 854 201 831 201C808 201 785 201 761.8 201C738.7 201 715.3 201 692.2 201C669 201 646 201 623 201C600 201 577 201 554 201C531 201 508 201 484.8 201C461.7 201 438.3 201 415.2 201C392 201 369 201 346 201C323 201 300 201 277 201C254 201 231 201 207.8 201C184.7 201 161.3 201 138.2 201C115 201 92 201 69 201C46 201 23 201 11.5 201L0 201Z" fill="#e34c67"></path><path d="M0 178L11.5 176.7C23 175.3 46 172.7 69 171.5C92 170.3 115 170.7 138.2 172.8C161.3 175 184.7 179 207.8 178.3C231 177.7 254 172.3 277 172C300 171.7 323 176.3 346 176C369 175.7 392 170.3 415.2 167.5C438.3 164.7 461.7 164.3 484.8 166C508 167.7 531 171.3 554 175C577 178.7 600 182.3 623 180.8C646 179.3 669 172.7 692.2 172.2C715.3 171.7 738.7 177.3 761.8 179.3C785 181.3 808 179.7 831 176.2C854 172.7 877 167.3 888.5 164.7L900 162L900 201L888.5 201C877 201 854 201 831 201C808 201 785 201 761.8 201C738.7 201 715.3 201 692.2 201C669 201 646 201 623 201C600 201 577 201 554 201C531 201 508 201 484.8 201C461.7 201 438.3 201 415.2 201C392 201 369 201 346 201C323 201 300 201 277 201C254 201 231 201 207.8 201C184.7 201 161.3 201 138.2 201C115 201 92 201 69 201C46 201 23 201 11.5 201L0 201Z" fill="#c62368"></path></svg>