<svg id="visual" viewBox="0 0 900 100" width="900" height="100" xmlns="http://www.w3.org/2000/svg" xmlns:xlink="http://www.w3.org/1999/xlink" version="1.1"><rect x="0" y="0" width="900" height="100" fill="#001220"></rect><path d="M0 35L5.3 33.8C10.7 32.7 21.3 30.3 32 32.5C42.7 34.7 53.3 41.3 64 43.2C74.7 45 85.3 42 96.2 40.2C107 38.3 118 37.7 128.8 32C139.7 26.3 150.3 15.7 161 18.2C171.7 20.7 182.3 36.3 193 43.2C203.7 50 214.3 48 225 44.3C235.7 40.7 246.3 35.3 257 31.7C267.7 28 278.3 26 289 31.5C299.7 37 310.3 50 321.2 47.8C332 45.7 343 28.3 353.8 19.8C364.7 11.3 375.3 11.7 386 18C396.7 24.3 407.3 36.7 418 47.2C428.7 57.7 439.3 66.3 450 62C460.7 57.7 471.3 40.3 482 35.7C492.7 31 503.3 39 514 36.7C524.7 34.3 535.3 21.7 546.2 22.3C557 23 568 37 578.8 46.3C589.7 55.7 600.3 60.3 611 59.3C621.7 58.3 632.3 51.7 643 46.3C653.7 41 664.3 37 675 38.7C685.7 40.3 696.3 47.7 707 43.5C717.7 39.3 728.3 23.7 739 20.7C749.7 17.7 760.3 27.3 771.2 30C782 32.7 793 28.3 803.8 28.5C814.7 28.7 825.3 33.3 836 39.2C846.7 45 857.3 52 868 49.5C878.7 47 889.3 35 894.7 29L900 23L900 0L894.7 0C889.3 0 878.7 0 868 0C857.3 0 846.7 0 836 0C825.3 0 814.7 0 803.8 0C793 0 782 0 771.2 0C760.3 0 749.7 0 739 0C728.3 0 717.7 0 707 0C696.3 0 685.7 0 675 0C664.3 0 653.7 0 643 0C632.3 0 621.7 0 611 0C600.3 0 589.7 0 578.8 0C568 0 557 0 546.2 0C535.3 0 524.7 0 514 0C503.3 0 492.7 0 482 0C471.3 0 460.7 0 450 0C439.3 0 428.7 0 418 0C407.3 0 396.7 0 386 0C375.3 0 364.7 0 353.8 0C343 0 332 0 321.2 0C310.3 0 299.7 0 289 0C278.3 0 267.7 0 257 0C246.3 0 235.7 0 225 0C214.3 0 203.7 0 193 0C182.3 0 171.7 0 161 0C150.3 0 139.7 0 128.8 0C118 0 107 0 96.2 0C85.3 0 74.7 0 64 0C53.3 0 42.7 0 32 0C21.3 0 10.7 0 5.3 0L0 0Z" fill="#C62368" stroke-linecap="round" stroke-linejoin="miter"></path></svg>