<svg id="visual" viewBox="0 0 900 100" width="900" height="100" xmlns="http://www.w3.org/2000/svg" xmlns:xlink="http://www.w3.org/1999/xlink" version="1.1"><rect x="0" y="0" width="900" height="100" fill="#001220"></rect><path d="M0 72L13.7 72.8C27.3 73.7 54.7 75.3 82 75.2C109.3 75 136.7 73 163.8 71.5C191 70 218 69 245.2 69.8C272.3 70.7 299.7 73.3 327 73.2C354.3 73 381.7 70 409 68.8C436.3 67.7 463.7 68.3 491 69C518.3 69.7 545.7 70.3 573 69.2C600.3 68 627.7 65 654.8 65.3C682 65.7 709 69.3 736.2 70.8C763.3 72.3 790.7 71.7 818 71.3C845.3 71 872.7 71 886.3 71L900 71L900 0L886.3 0C872.7 0 845.3 0 818 0C790.7 0 763.3 0 736.2 0C709 0 682 0 654.8 0C627.7 0 600.3 0 573 0C545.7 0 518.3 0 491 0C463.7 0 436.3 0 409 0C381.7 0 354.3 0 327 0C299.7 0 272.3 0 245.2 0C218 0 191 0 163.8 0C136.7 0 109.3 0 82 0C54.7 0 27.3 0 13.7 0L0 0Z" fill="#ff98dd"></path><path d="M0 55L13.7 55.5C27.3 56 54.7 57 82 56C109.3 55 136.7 52 163.8 49.8C191 47.7 218 46.3 245.2 47.7C272.3 49 299.7 53 327 53.2C354.3 53.3 381.7 49.7 409 49.7C436.3 49.7 463.7 53.3 491 55.3C518.3 57.3 545.7 57.7 573 55.8C600.3 54 627.7 50 654.8 49.5C682 49 709 52 736.2 53.2C763.3 54.3 790.7 53.7 818 54.7C845.3 55.7 872.7 58.3 886.3 59.7L900 61L900 0L886.3 0C872.7 0 845.3 0 818 0C790.7 0 763.3 0 736.2 0C709 0 682 0 654.8 0C627.7 0 600.3 0 573 0C545.7 0 518.3 0 491 0C463.7 0 436.3 0 409 0C381.7 0 354.3 0 327 0C299.7 0 272.3 0 245.2 0C218 0 191 0 163.8 0C136.7 0 109.3 0 82 0C54.7 0 27.3 0 13.7 0L0 0Z" fill="#ee74b7"></path><path d="M0 37L13.7 37C27.3 37 54.7 37 82 37C109.3 37 136.7 37 163.8 36.5C191 36 218 35 245.2 34.5C272.3 34 299.7 34 327 33.7C354.3 33.3 381.7 32.7 409 33.7C436.3 34.7 463.7 37.3 491 37.7C518.3 38 545.7 36 573 34.8C600.3 33.7 627.7 33.3 654.8 34.2C682 35 709 37 736.2 36.5C763.3 36 790.7 33 818 32.5C845.3 32 872.7 34 886.3 35L900 36L900 0L886.3 0C872.7 0 845.3 0 818 0C790.7 0 763.3 0 736.2 0C709 0 682 0 654.8 0C627.7 0 600.3 0 573 0C545.7 0 518.3 0 491 0C463.7 0 436.3 0 409 0C381.7 0 354.3 0 327 0C299.7 0 272.3 0 245.2 0C218 0 191 0 163.8 0C136.7 0 109.3 0 82 0C54.7 0 27.3 0 13.7 0L0 0Z" fill="#db4f8f"></path><path d="M0 16L13.7 15.8C27.3 15.7 54.7 15.3 82 15.8C109.3 16.3 136.7 17.7 163.8 18.3C191 19 218 19 245.2 19.7C272.3 20.3 299.7 21.7 327 22C354.3 22.3 381.7 21.7 409 21C436.3 20.3 463.7 19.7 491 19.8C518.3 20 545.7 21 573 20C600.3 19 627.7 16 654.8 15.2C682 14.3 709 15.7 736.2 15.7C763.3 15.7 790.7 14.3 818 15.5C845.3 16.7 872.7 20.3 886.3 22.2L900 24L900 0L886.3 0C872.7 0 845.3 0 818 0C790.7 0 763.3 0 736.2 0C709 0 682 0 654.8 0C627.7 0 600.3 0 573 0C545.7 0 518.3 0 491 0C463.7 0 436.3 0 409 0C381.7 0 354.3 0 327 0C299.7 0 272.3 0 245.2 0C218 0 191 0 163.8 0C136.7 0 109.3 0 82 0C54.7 0 27.3 0 13.7 0L0 0Z" fill="#c62368"></path></svg>