<svg id="visual" viewBox="0 0 900 100" width="900" height="100" xmlns="http://www.w3.org/2000/svg" xmlns:xlink="http://www.w3.org/1999/xlink" version="1.1"><g stroke-width="1" stroke-linejoin="bevel"><path d="M432 30.3L414 0L413 0Z" fill="#962972" stroke="#962972"></path><path d="M413 0L394 58.3L432 30.3Z" fill="#001220" stroke="#001220"></path><path d="M394 58.3L414 72.7L432 30.3Z" fill="#c62368" stroke="#c62368"></path><path d="M413 0L351 0L394 58.3Z" fill="#4b2d66" stroke="#4b2d66"></path><path d="M333 47.3L352 77.7L394 58.3Z" fill="#962972" stroke="#962972"></path><path d="M394 58.3L396 100L414 72.7Z" fill="#342a5b" stroke="#342a5b"></path><path d="M352 77.7L396 100L394 58.3Z" fill="#7d2c72" stroke="#7d2c72"></path><path d="M396 100L419 102.7L414 72.7Z" fill="#051a30" stroke="#051a30"></path><path d="M414 72.7L465 100L432 30.3Z" fill="#051a30" stroke="#051a30"></path><path d="M333 47.3L394 58.3L351 0Z" fill="#0f213f" stroke="#0f213f"></path><path d="M336 0L333 47.3L351 0Z" fill="#4b2d66" stroke="#4b2d66"></path><path d="M419 102.7L465 100L414 72.7Z" fill="#342a5b" stroke="#342a5b"></path><path d="M286 19.3L326 61.7L333 47.3Z" fill="#20264e" stroke="#20264e"></path><path d="M333 47.3L326 61.7L352 77.7Z" fill="#c62368" stroke="#c62368"></path><path d="M528 34.3L515 0L432 30.3Z" fill="#7d2c72" stroke="#7d2c72"></path><path d="M432 30.3L515 0L414 0Z" fill="#342a5b" stroke="#342a5b"></path><path d="M528 34.3L518 0L515 0Z" fill="#0f213f" stroke="#0f213f"></path><path d="M337 100L340 100L352 77.7Z" fill="#0f213f" stroke="#0f213f"></path><path d="M352 77.7L340 100L396 100Z" fill="#342a5b" stroke="#342a5b"></path><path d="M396 100L340 100L419 102.7Z" fill="#051a30" stroke="#051a30"></path><path d="M326 61.7L337 100L352 77.7Z" fill="#7d2c72" stroke="#7d2c72"></path><path d="M340 100L337 100L419 102.7Z" fill="#0f213f" stroke="#0f213f"></path><path d="M419 102.7L493 101.7L465 100Z" fill="#642e6e" stroke="#642e6e"></path><path d="M465 100L528 34.3L432 30.3Z" fill="#af256f" stroke="#af256f"></path><path d="M493 101.7L528 34.3L465 100Z" fill="#c62368" stroke="#c62368"></path><path d="M493 101.7L502 100L528 34.3Z" fill="#342a5b" stroke="#342a5b"></path><path d="M493 101.7L508 100L502 100Z" fill="#642e6e" stroke="#642e6e"></path><path d="M502 100L508 100L528 34.3Z" fill="#642e6e" stroke="#642e6e"></path><path d="M351 0L291 -0.7L336 0Z" fill="#0f213f" stroke="#0f213f"></path><path d="M336 0L286 19.3L333 47.3Z" fill="#342a5b" stroke="#342a5b"></path><path d="M326 61.7L264 88.7L337 100Z" fill="#051a30" stroke="#051a30"></path><path d="M413 0L291 -0.7L351 0Z" fill="#7d2c72" stroke="#7d2c72"></path><path d="M414 0L291 -0.7L413 0Z" fill="#af256f" stroke="#af256f"></path><path d="M515 0L291 -0.7L414 0Z" fill="#342a5b" stroke="#342a5b"></path><path d="M849 -2.7L291 -0.7L515 0Z" fill="#001220" stroke="#001220"></path><path d="M291 -0.7L286 19.3L336 0Z" fill="#7d2c72" stroke="#7d2c72"></path><path d="M563 66.7L557 43.3L528 34.3Z" fill="#af256f" stroke="#af256f"></path><path d="M528 34.3L570 0L518 0Z" fill="#962972" stroke="#962972"></path><path d="M508 100L563 66.7L528 34.3Z" fill="#20264e" stroke="#20264e"></path><path d="M557 43.3L570 0L528 34.3Z" fill="#642e6e" stroke="#642e6e"></path><path d="M518 0L849 -2.7L515 0Z" fill="#af256f" stroke="#af256f"></path><path d="M574 40.3L570 0L557 43.3Z" fill="#20264e" stroke="#20264e"></path><path d="M291 -0.7L257 0L286 19.3Z" fill="#4b2d66" stroke="#4b2d66"></path><path d="M286 19.3L264 88.7L326 61.7Z" fill="#342a5b" stroke="#342a5b"></path><path d="M508 100L554 100L563 66.7Z" fill="#342a5b" stroke="#342a5b"></path><path d="M578 103.7L554 100L508 100Z" fill="#20264e" stroke="#20264e"></path><path d="M596 100L574 40.3L563 66.7Z" fill="#962972" stroke="#962972"></path><path d="M563 66.7L574 40.3L557 43.3Z" fill="#c62368" stroke="#c62368"></path><path d="M213 46.7L264 88.7L286 19.3Z" fill="#4b2d66" stroke="#4b2d66"></path><path d="M291 -0.7L250 0L257 0Z" fill="#20264e" stroke="#20264e"></path><path d="M257 0L250 0L286 19.3Z" fill="#642e6e" stroke="#642e6e"></path><path d="M238 100L250 100L264 88.7Z" fill="#c62368" stroke="#c62368"></path><path d="M264 88.7L250 100L337 100Z" fill="#051a30" stroke="#051a30"></path><path d="M337 100L250 100L419 102.7Z" fill="#0f213f" stroke="#0f213f"></path><path d="M493 101.7L578 103.7L508 100Z" fill="#051a30" stroke="#051a30"></path><path d="M554 100L578 103.7L563 66.7Z" fill="#4b2d66" stroke="#4b2d66"></path><path d="M419 102.7L578 103.7L493 101.7Z" fill="#962972" stroke="#962972"></path><path d="M213 46.7L238 100L264 88.7Z" fill="#7d2c72" stroke="#7d2c72"></path><path d="M250 100L238 100L419 102.7Z" fill="#642e6e" stroke="#642e6e"></path><path d="M250 0L213 46.7L286 19.3Z" fill="#342a5b" stroke="#342a5b"></path><path d="M578 103.7L596 100L563 66.7Z" fill="#4b2d66" stroke="#4b2d66"></path><path d="M574 40.3L639 0L570 0Z" fill="#642e6e" stroke="#642e6e"></path><path d="M217 14.3L213 46.7L250 0Z" fill="#4b2d66" stroke="#4b2d66"></path><path d="M217 14.3L201 49.7L213 46.7Z" fill="#962972" stroke="#962972"></path><path d="M213 46.7L201 49.7L238 100Z" fill="#4b2d66" stroke="#4b2d66"></path><path d="M663 72.3L639 0L574 40.3Z" fill="#642e6e" stroke="#642e6e"></path><path d="M570 0L849 -2.7L518 0Z" fill="#962972" stroke="#962972"></path><path d="M672 26.3L642 0L639 0Z" fill="#c62368" stroke="#c62368"></path><path d="M639 0L849 -2.7L570 0Z" fill="#20264e" stroke="#20264e"></path><path d="M250 0L185 0L217 14.3Z" fill="#af256f" stroke="#af256f"></path><path d="M217 14.3L185 0L201 49.7Z" fill="#342a5b" stroke="#342a5b"></path><path d="M291 -0.7L185 0L250 0Z" fill="#642e6e" stroke="#642e6e"></path><path d="M578 103.7L637 98.7L596 100Z" fill="#af256f" stroke="#af256f"></path><path d="M596 100L637 98.7L574 40.3Z" fill="#001220" stroke="#001220"></path><path d="M136 29.7L170 72.3L201 49.7Z" fill="#962972" stroke="#962972"></path><path d="M201 49.7L170 72.3L238 100Z" fill="#0f213f" stroke="#0f213f"></path><path d="M637 98.7L663 72.3L574 40.3Z" fill="#7d2c72" stroke="#7d2c72"></path><path d="M654 91.7L663 72.3L637 98.7Z" fill="#c62368" stroke="#c62368"></path><path d="M637 98.7L659 100L654 91.7Z" fill="#962972" stroke="#962972"></path><path d="M654 91.7L659 100L663 72.3Z" fill="#af256f" stroke="#af256f"></path><path d="M578 103.7L659 100L637 98.7Z" fill="#051a30" stroke="#051a30"></path><path d="M690 0L672 26.3L712 51.7Z" fill="#4b2d66" stroke="#4b2d66"></path><path d="M663 72.3L672 26.3L639 0Z" fill="#962972" stroke="#962972"></path><path d="M127 100L154 100L170 72.3Z" fill="#051a30" stroke="#051a30"></path><path d="M170 72.3L154 100L238 100Z" fill="#c62368" stroke="#c62368"></path><path d="M238 100L154 100L419 102.7Z" fill="#001220" stroke="#001220"></path><path d="M672 26.3L690 0L642 0Z" fill="#342a5b" stroke="#342a5b"></path><path d="M642 0L849 -2.7L639 0Z" fill="#c62368" stroke="#c62368"></path><path d="M712 51.7L672 26.3L663 72.3Z" fill="#20264e" stroke="#20264e"></path><path d="M185 0L136 29.7L201 49.7Z" fill="#20264e" stroke="#20264e"></path><path d="M291 -0.7L130 0L185 0Z" fill="#962972" stroke="#962972"></path><path d="M185 0L130 0L136 29.7Z" fill="#642e6e" stroke="#642e6e"></path><path d="M746 102.7L697 100L659 100Z" fill="#642e6e" stroke="#642e6e"></path><path d="M659 100L697 100L663 72.3Z" fill="#342a5b" stroke="#342a5b"></path><path d="M103 38.7L127 100L136 29.7Z" fill="#c62368" stroke="#c62368"></path><path d="M136 29.7L127 100L170 72.3Z" fill="#af256f" stroke="#af256f"></path><path d="M154 100L127 100L419 102.7Z" fill="#642e6e" stroke="#642e6e"></path><path d="M697 100L712 51.7L663 72.3Z" fill="#962972" stroke="#962972"></path><path d="M130 0L104 32.3L136 29.7Z" fill="#642e6e" stroke="#642e6e"></path><path d="M104 32.3L103 38.7L136 29.7Z" fill="#af256f" stroke="#af256f"></path><path d="M746 102.7L729 29.3L712 51.7Z" fill="#962972" stroke="#962972"></path><path d="M712 51.7L729 29.3L690 0Z" fill="#c62368" stroke="#c62368"></path><path d="M291 -0.7L84 0L130 0Z" fill="#20264e" stroke="#20264e"></path><path d="M130 0L84 0L104 32.3Z" fill="#642e6e" stroke="#642e6e"></path><path d="M104 32.3L73 43.7L103 38.7Z" fill="#af256f" stroke="#af256f"></path><path d="M103 38.7L91 100L127 100Z" fill="#4b2d66" stroke="#4b2d66"></path><path d="M73 43.7L91 100L103 38.7Z" fill="#20264e" stroke="#20264e"></path><path d="M127 100L91 100L419 102.7Z" fill="#20264e" stroke="#20264e"></path><path d="M84 0L73 43.7L104 32.3Z" fill="#001220" stroke="#001220"></path><path d="M578 103.7L746 102.7L659 100Z" fill="#4b2d66" stroke="#4b2d66"></path><path d="M697 100L746 102.7L712 51.7Z" fill="#4b2d66" stroke="#4b2d66"></path><path d="M291 -0.7L69 0L84 0Z" fill="#001220" stroke="#001220"></path><path d="M84 0L69 0L73 43.7Z" fill="#4b2d66" stroke="#4b2d66"></path><path d="M31 31.3L54 52.3L73 43.7Z" fill="#4b2d66" stroke="#4b2d66"></path><path d="M73 43.7L54 52.3L91 100Z" fill="#962972" stroke="#962972"></path><path d="M729 29.3L776 0L690 0Z" fill="#051a30" stroke="#051a30"></path><path d="M690 0L849 -2.7L642 0Z" fill="#342a5b" stroke="#342a5b"></path><path d="M797 36.7L776 0L729 29.3Z" fill="#0f213f" stroke="#0f213f"></path><path d="M746 102.7L793 71.3L729 29.3Z" fill="#0f213f" stroke="#0f213f"></path><path d="M54 52.3L44 100L91 100Z" fill="#0f213f" stroke="#0f213f"></path><path d="M91 100L44 100L419 102.7Z" fill="#7d2c72" stroke="#7d2c72"></path><path d="M69 0L31 31.3L73 43.7Z" fill="#642e6e" stroke="#642e6e"></path><path d="M54 52.3L0 69.7L44 100Z" fill="#0f213f" stroke="#0f213f"></path><path d="M773 100L793 71.3L746 102.7Z" fill="#342a5b" stroke="#342a5b"></path><path d="M793 71.3L797 36.7L729 29.3Z" fill="#051a30" stroke="#051a30"></path><path d="M773 100L802 100L793 71.3Z" fill="#af256f" stroke="#af256f"></path><path d="M840 34.3L838 31.7L797 36.7Z" fill="#001220" stroke="#001220"></path><path d="M746 102.7L802 100L773 100Z" fill="#c62368" stroke="#c62368"></path><path d="M746 102.7L818 100L802 100Z" fill="#642e6e" stroke="#642e6e"></path><path d="M802 100L818 100L793 71.3Z" fill="#20264e" stroke="#20264e"></path><path d="M797 36.7L826 0L776 0Z" fill="#642e6e" stroke="#642e6e"></path><path d="M776 0L849 -2.7L690 0Z" fill="#4b2d66" stroke="#4b2d66"></path><path d="M838 31.7L826 0L797 36.7Z" fill="#af256f" stroke="#af256f"></path><path d="M0 0L0 6.3L31 31.3Z" fill="#4b2d66" stroke="#4b2d66"></path><path d="M31 31.3L0 69.7L54 52.3Z" fill="#642e6e" stroke="#642e6e"></path><path d="M291 -0.7L0 0L69 0Z" fill="#af256f" stroke="#af256f"></path><path d="M69 0L0 0L31 31.3Z" fill="#962972" stroke="#962972"></path><path d="M0 6.3L0 69.7L31 31.3Z" fill="#af256f" stroke="#af256f"></path><path d="M0 69.7L0 100L44 100Z" fill="#962972" stroke="#962972"></path><path d="M44 100L0 100L419 102.7Z" fill="#0f213f" stroke="#0f213f"></path><path d="M840 34.3L797 36.7L793 71.3Z" fill="#642e6e" stroke="#642e6e"></path><path d="M818 100L840 34.3L793 71.3Z" fill="#342a5b" stroke="#342a5b"></path><path d="M838 31.7L843 0L826 0Z" fill="#4b2d66" stroke="#4b2d66"></path><path d="M849 -2.7L843 0L838 31.7Z" fill="#642e6e" stroke="#642e6e"></path><path d="M826 0L849 -2.7L776 0Z" fill="#001220" stroke="#001220"></path><path d="M840 34.3L849 -2.7L838 31.7Z" fill="#7d2c72" stroke="#7d2c72"></path><path d="M843 0L849 -2.7L826 0Z" fill="#962972" stroke="#962972"></path><path d="M291 -0.7L849 -2.7L0 0Z" fill="#051a30" stroke="#051a30"></path><path d="M900 36.3L900 29.7L840 34.3Z" fill="#af256f" stroke="#af256f"></path><path d="M840 34.3L900 29.7L849 -2.7Z" fill="#4b2d66" stroke="#4b2d66"></path><path d="M900 100L900 36.3L840 34.3Z" fill="#20264e" stroke="#20264e"></path><path d="M900 29.7L900 0L849 -2.7Z" fill="#001220" stroke="#001220"></path><path d="M746 102.7L900 100L818 100Z" fill="#7d2c72" stroke="#7d2c72"></path><path d="M818 100L900 100L840 34.3Z" fill="#af256f" stroke="#af256f"></path></g></svg>