<svg id="visual" viewBox="0 0 900 600" width="900" height="600" xmlns="http://www.w3.org/2000/svg" xmlns:xlink="http://www.w3.org/1999/xlink" version="1.1"><g stroke-width="1" stroke-linejoin="bevel"><path d="M460 263L481 266.1L491 230.3Z" fill="#051a30" stroke="#051a30"></path><path d="M491 230.3L485 224.4L460 263Z" fill="#0f213f" stroke="#0f213f"></path><path d="M516 248L511 225.3L491 230.3Z" fill="#962972" stroke="#962972"></path><path d="M491 230.3L511 225.3L485 224.4Z" fill="#20264e" stroke="#20264e"></path><path d="M481 266.1L516 248L491 230.3Z" fill="#c62368" stroke="#c62368"></path><path d="M470 151.6L456 190.3L500 144.6Z" fill="#962972" stroke="#962972"></path><path d="M485 224.4L412 220.4L460 263Z" fill="#0f213f" stroke="#0f213f"></path><path d="M516 248L530 224.4L511 225.3Z" fill="#001220" stroke="#001220"></path><path d="M511 225.3L500 144.6L485 224.4Z" fill="#001220" stroke="#001220"></path><path d="M456 190.3L412 220.4L485 224.4Z" fill="#20264e" stroke="#20264e"></path><path d="M555 305.1L543 254.1L516 248Z" fill="#c62368" stroke="#c62368"></path><path d="M516 248L543 254.1L530 224.4Z" fill="#af256f" stroke="#af256f"></path><path d="M405 177.4L397 207.1L412 220.4Z" fill="#7d2c72" stroke="#7d2c72"></path><path d="M436 338.7L459 329.9L460 263Z" fill="#051a30" stroke="#051a30"></path><path d="M384 259.3L460 263L412 220.4Z" fill="#0f213f" stroke="#0f213f"></path><path d="M460 263L459 329.9L481 266.1Z" fill="#4b2d66" stroke="#4b2d66"></path><path d="M481 266.1L555 305.1L516 248Z" fill="#342a5b" stroke="#342a5b"></path><path d="M577 230.1L541 190.3L530 224.4Z" fill="#7d2c72" stroke="#7d2c72"></path><path d="M530 224.4L541 190.3L511 225.3Z" fill="#af256f" stroke="#af256f"></path><path d="M397 207.1L384 259.3L412 220.4Z" fill="#c62368" stroke="#c62368"></path><path d="M500 144.6L456 190.3L485 224.4Z" fill="#c62368" stroke="#c62368"></path><path d="M456 190.3L405 177.4L412 220.4Z" fill="#c62368" stroke="#c62368"></path><path d="M470 151.6L405 177.4L456 190.3Z" fill="#4b2d66" stroke="#4b2d66"></path><path d="M384 259.3L436 338.7L460 263Z" fill="#962972" stroke="#962972"></path><path d="M490 347.7L481 266.1L459 329.9Z" fill="#4b2d66" stroke="#4b2d66"></path><path d="M490 347.7L555 305.1L481 266.1Z" fill="#0f213f" stroke="#0f213f"></path><path d="M543 254.1L577 230.1L530 224.4Z" fill="#342a5b" stroke="#342a5b"></path><path d="M405 177.4L388 187.3L397 207.1Z" fill="#af256f" stroke="#af256f"></path><path d="M397 207.1L319 238.1L384 259.3Z" fill="#051a30" stroke="#051a30"></path><path d="M541 190.3L500 144.6L511 225.3Z" fill="#0f213f" stroke="#0f213f"></path><path d="M443 349L490 347.7L459 329.9Z" fill="#962972" stroke="#962972"></path><path d="M587 277L577 230.1L543 254.1Z" fill="#4b2d66" stroke="#4b2d66"></path><path d="M541 190.3L561 136.6L500 144.6Z" fill="#7d2c72" stroke="#7d2c72"></path><path d="M436 338.7L443 349L459 329.9Z" fill="#af256f" stroke="#af256f"></path><path d="M555 305.1L587 277L543 254.1Z" fill="#0f213f" stroke="#0f213f"></path><path d="M319 238.1L355 283.1L384 259.3Z" fill="#342a5b" stroke="#342a5b"></path><path d="M384 259.3L357 294L436 338.7Z" fill="#051a30" stroke="#051a30"></path><path d="M436 338.7L411 366.9L443 349Z" fill="#642e6e" stroke="#642e6e"></path><path d="M355 283.1L357 294L384 259.3Z" fill="#0f213f" stroke="#0f213f"></path><path d="M612 209.1L590 183.4L577 230.1Z" fill="#051a30" stroke="#051a30"></path><path d="M577 230.1L590 183.4L541 190.3Z" fill="#642e6e" stroke="#642e6e"></path><path d="M541 361.7L540 359.9L490 347.7Z" fill="#4b2d66" stroke="#4b2d66"></path><path d="M490 347.7L540 359.9L555 305.1Z" fill="#0f213f" stroke="#0f213f"></path><path d="M555 305.1L603 287L587 277Z" fill="#20264e" stroke="#20264e"></path><path d="M475 418.4L541 361.7L490 347.7Z" fill="#962972" stroke="#962972"></path><path d="M540 359.9L547 358.9L555 305.1Z" fill="#051a30" stroke="#051a30"></path><path d="M541 361.7L547 358.9L540 359.9Z" fill="#051a30" stroke="#051a30"></path><path d="M620 332.9L603 287L555 305.1Z" fill="#642e6e" stroke="#642e6e"></path><path d="M587 277L612 209.1L577 230.1Z" fill="#051a30" stroke="#051a30"></path><path d="M357 294L411 366.9L436 338.7Z" fill="#0f213f" stroke="#0f213f"></path><path d="M443 349L475 418.4L490 347.7Z" fill="#7d2c72" stroke="#7d2c72"></path><path d="M612 209.1L593 174.3L590 183.4Z" fill="#642e6e" stroke="#642e6e"></path><path d="M590 183.4L593 174.3L541 190.3Z" fill="#001220" stroke="#001220"></path><path d="M470 151.6L384 138.4L405 177.4Z" fill="#af256f" stroke="#af256f"></path><path d="M405 177.4L384 138.4L388 187.3Z" fill="#7d2c72" stroke="#7d2c72"></path><path d="M388 187.3L319 238.1L397 207.1Z" fill="#20264e" stroke="#20264e"></path><path d="M432 73.9L384 138.4L470 151.6Z" fill="#7d2c72" stroke="#7d2c72"></path><path d="M593 174.3L561 136.6L541 190.3Z" fill="#20264e" stroke="#20264e"></path><path d="M500 144.6L442 71.9L470 151.6Z" fill="#c62368" stroke="#c62368"></path><path d="M646 271L612 209.1L587 277Z" fill="#962972" stroke="#962972"></path><path d="M321 298L345 318.9L357 294Z" fill="#001220" stroke="#001220"></path><path d="M357 294L345 318.9L411 366.9Z" fill="#962972" stroke="#962972"></path><path d="M321 298L357 294L355 283.1Z" fill="#7d2c72" stroke="#7d2c72"></path><path d="M286 161.3L319 238.1L388 187.3Z" fill="#4b2d66" stroke="#4b2d66"></path><path d="M319 238.1L321 298L355 283.1Z" fill="#962972" stroke="#962972"></path><path d="M318 337.9L346 344L345 318.9Z" fill="#0f213f" stroke="#0f213f"></path><path d="M345 318.9L346 344L411 366.9Z" fill="#051a30" stroke="#051a30"></path><path d="M562 434.7L598 359.9L547 358.9Z" fill="#7d2c72" stroke="#7d2c72"></path><path d="M547 358.9L598 359.9L555 305.1Z" fill="#20264e" stroke="#20264e"></path><path d="M603 287L646 271L587 277Z" fill="#4b2d66" stroke="#4b2d66"></path><path d="M562 434.7L547 358.9L541 361.7Z" fill="#0f213f" stroke="#0f213f"></path><path d="M598 359.9L620 332.9L555 305.1Z" fill="#c62368" stroke="#c62368"></path><path d="M451 423.7L443 349L411 366.9Z" fill="#962972" stroke="#962972"></path><path d="M451 423.7L475 418.4L443 349Z" fill="#c62368" stroke="#c62368"></path><path d="M620 332.9L646 271L603 287Z" fill="#af256f" stroke="#af256f"></path><path d="M612 209.1L632 167.4L593 174.3Z" fill="#20264e" stroke="#20264e"></path><path d="M537 75.7L442 71.9L500 144.6Z" fill="#af256f" stroke="#af256f"></path><path d="M442 71.9L432 73.9L470 151.6Z" fill="#001220" stroke="#001220"></path><path d="M710 238.1L632 167.4L612 209.1Z" fill="#642e6e" stroke="#642e6e"></path><path d="M593 174.3L583 98.7L561 136.6Z" fill="#642e6e" stroke="#642e6e"></path><path d="M474 0L440 68.7L442 71.9Z" fill="#af256f" stroke="#af256f"></path><path d="M360 387.7L395 404.6L411 366.9Z" fill="#af256f" stroke="#af256f"></path><path d="M537 75.7L500 144.6L561 136.6Z" fill="#342a5b" stroke="#342a5b"></path><path d="M442 71.9L440 68.7L432 73.9Z" fill="#c62368" stroke="#c62368"></path><path d="M353 79.6L344 120.6L384 138.4Z" fill="#af256f" stroke="#af256f"></path><path d="M384 138.4L344 120.6L388 187.3Z" fill="#c62368" stroke="#c62368"></path><path d="M400 61.7L384 138.4L432 73.9Z" fill="#af256f" stroke="#af256f"></path><path d="M395 404.6L451 423.7L411 366.9Z" fill="#962972" stroke="#962972"></path><path d="M583 98.7L537 75.7L561 136.6Z" fill="#20264e" stroke="#20264e"></path><path d="M321 298L318 337.9L345 318.9Z" fill="#051a30" stroke="#051a30"></path><path d="M346 344L360 387.7L411 366.9Z" fill="#4b2d66" stroke="#4b2d66"></path><path d="M312 362.7L318 337.9L269 295.9Z" fill="#0f213f" stroke="#0f213f"></path><path d="M646 132.6L583 98.7L593 174.3Z" fill="#342a5b" stroke="#342a5b"></path><path d="M312 362.7L360 387.7L346 344Z" fill="#342a5b" stroke="#342a5b"></path><path d="M710 238.1L646 153.6L632 167.4Z" fill="#051a30" stroke="#051a30"></path><path d="M632 167.4L646 132.6L593 174.3Z" fill="#c62368" stroke="#c62368"></path><path d="M594 82.6L576 77.9L583 98.7Z" fill="#0f213f" stroke="#0f213f"></path><path d="M583 98.7L576 77.9L537 75.7Z" fill="#af256f" stroke="#af256f"></path><path d="M392 31.9L400 61.7L440 68.7Z" fill="#4b2d66" stroke="#4b2d66"></path><path d="M531 27.9L442 71.9L537 75.7Z" fill="#342a5b" stroke="#342a5b"></path><path d="M440 68.7L400 61.7L432 73.9Z" fill="#051a30" stroke="#051a30"></path><path d="M269 295.9L318 337.9L321 298Z" fill="#af256f" stroke="#af256f"></path><path d="M318 337.9L312 362.7L346 344Z" fill="#7d2c72" stroke="#7d2c72"></path><path d="M312 362.7L348 400.6L360 387.7Z" fill="#20264e" stroke="#20264e"></path><path d="M360 387.7L348 400.6L395 404.6Z" fill="#c62368" stroke="#c62368"></path><path d="M476 472.3L475 418.4L451 423.7Z" fill="#342a5b" stroke="#342a5b"></path><path d="M281 169.4L274 213.4L319 238.1Z" fill="#962972" stroke="#962972"></path><path d="M319 238.1L269 295.9L321 298Z" fill="#4b2d66" stroke="#4b2d66"></path><path d="M400 61.7L380 65.7L384 138.4Z" fill="#642e6e" stroke="#642e6e"></path><path d="M344 120.6L286 161.3L388 187.3Z" fill="#0f213f" stroke="#0f213f"></path><path d="M637 79.9L594 82.6L583 98.7Z" fill="#0f213f" stroke="#0f213f"></path><path d="M380 65.7L353 79.6L384 138.4Z" fill="#051a30" stroke="#051a30"></path><path d="M690 331L678 261.3L646 271Z" fill="#342a5b" stroke="#342a5b"></path><path d="M646 271L678 261.3L612 209.1Z" fill="#342a5b" stroke="#342a5b"></path><path d="M266 142.6L286 161.3L344 120.6Z" fill="#0f213f" stroke="#0f213f"></path><path d="M661 139.4L646 132.6L646 153.6Z" fill="#0f213f" stroke="#0f213f"></path><path d="M646 153.6L646 132.6L632 167.4Z" fill="#4b2d66" stroke="#4b2d66"></path><path d="M286 161.3L281 169.4L319 238.1Z" fill="#4b2d66" stroke="#4b2d66"></path><path d="M499 462.6L562 434.7L475 418.4Z" fill="#642e6e" stroke="#642e6e"></path><path d="M475 418.4L562 434.7L541 361.7Z" fill="#962972" stroke="#962972"></path><path d="M598 359.9L679 348.7L620 332.9Z" fill="#962972" stroke="#962972"></path><path d="M620 332.9L690 331L646 271Z" fill="#4b2d66" stroke="#4b2d66"></path><path d="M274 213.4L269 295.9L319 238.1Z" fill="#0f213f" stroke="#0f213f"></path><path d="M637 79.9L596 69.7L594 82.6Z" fill="#7d2c72" stroke="#7d2c72"></path><path d="M594 82.6L596 69.7L576 77.9Z" fill="#342a5b" stroke="#342a5b"></path><path d="M576 77.9L531 27.9L537 75.7Z" fill="#001220" stroke="#001220"></path><path d="M710 238.1L661 139.4L646 153.6Z" fill="#af256f" stroke="#af256f"></path><path d="M637 79.9L601 57.7L596 69.7Z" fill="#af256f" stroke="#af256f"></path><path d="M397 480.6L451 423.7L395 404.6Z" fill="#962972" stroke="#962972"></path><path d="M476 472.3L499 462.6L475 418.4Z" fill="#342a5b" stroke="#342a5b"></path><path d="M601 57.7L531 27.9L576 77.9Z" fill="#4b2d66" stroke="#4b2d66"></path><path d="M392 31.9L343 60.7L380 65.7Z" fill="#af256f" stroke="#af256f"></path><path d="M380 65.7L343 60.7L353 79.6Z" fill="#af256f" stroke="#af256f"></path><path d="M353 79.6L276 75.9L344 120.6Z" fill="#001220" stroke="#001220"></path><path d="M286 161.3L266 142.6L281 169.4Z" fill="#342a5b" stroke="#342a5b"></path><path d="M392 31.9L380 65.7L400 61.7Z" fill="#af256f" stroke="#af256f"></path><path d="M274 213.4L251 286.1L269 295.9Z" fill="#001220" stroke="#001220"></path><path d="M263 393.6L276 405.7L312 362.7Z" fill="#20264e" stroke="#20264e"></path><path d="M217 294.1L251 286.1L187 249Z" fill="#c62368" stroke="#c62368"></path><path d="M310 435.7L367 444.4L348 400.6Z" fill="#342a5b" stroke="#342a5b"></path><path d="M348 400.6L367 444.4L395 404.6Z" fill="#20264e" stroke="#20264e"></path><path d="M310 435.7L348 400.6L276 405.7Z" fill="#7d2c72" stroke="#7d2c72"></path><path d="M637 79.9L583 98.7L646 132.6Z" fill="#4b2d66" stroke="#4b2d66"></path><path d="M596 69.7L601 57.7L576 77.9Z" fill="#20264e" stroke="#20264e"></path><path d="M397 480.6L476 472.3L451 423.7Z" fill="#0f213f" stroke="#0f213f"></path><path d="M432 0L392 31.9L440 68.7Z" fill="#20264e" stroke="#20264e"></path><path d="M575 474.6L577 448.6L562 434.7Z" fill="#af256f" stroke="#af256f"></path><path d="M562 434.7L577 448.6L598 359.9Z" fill="#001220" stroke="#001220"></path><path d="M532 483.4L562 434.7L499 462.6Z" fill="#af256f" stroke="#af256f"></path><path d="M691 392.9L679 348.7L598 359.9Z" fill="#af256f" stroke="#af256f"></path><path d="M276 75.9L266 142.6L344 120.6Z" fill="#051a30" stroke="#051a30"></path><path d="M281 169.4L245 156.4L274 213.4Z" fill="#962972" stroke="#962972"></path><path d="M672 62.9L637 79.9L646 132.6Z" fill="#342a5b" stroke="#342a5b"></path><path d="M679 348.7L690 331L620 332.9Z" fill="#0f213f" stroke="#0f213f"></path><path d="M678 261.3L710 238.1L612 209.1Z" fill="#0f213f" stroke="#0f213f"></path><path d="M718 273.1L710 238.1L678 261.3Z" fill="#af256f" stroke="#af256f"></path><path d="M661 139.4L672 62.9L646 132.6Z" fill="#7d2c72" stroke="#7d2c72"></path><path d="M491 0L442 71.9L531 27.9Z" fill="#642e6e" stroke="#642e6e"></path><path d="M491 0L474 0L442 71.9Z" fill="#20264e" stroke="#20264e"></path><path d="M230 164.6L245 156.4L231 138.7Z" fill="#20264e" stroke="#20264e"></path><path d="M266 142.6L245 156.4L281 169.4Z" fill="#4b2d66" stroke="#4b2d66"></path><path d="M550 0L491 0L531 27.9Z" fill="#af256f" stroke="#af256f"></path><path d="M498 516.4L532 483.4L499 462.6Z" fill="#7d2c72" stroke="#7d2c72"></path><path d="M690 331L718 273.1L678 261.3Z" fill="#20264e" stroke="#20264e"></path><path d="M474 0L439 0L440 68.7Z" fill="#642e6e" stroke="#642e6e"></path><path d="M392 31.9L396 0L343 60.7Z" fill="#af256f" stroke="#af256f"></path><path d="M367 444.4L397 480.6L395 404.6Z" fill="#001220" stroke="#001220"></path><path d="M476 472.3L498 516.4L499 462.6Z" fill="#051a30" stroke="#051a30"></path><path d="M439 0L432 0L440 68.7Z" fill="#20264e" stroke="#20264e"></path><path d="M532 483.4L575 474.6L562 434.7Z" fill="#642e6e" stroke="#642e6e"></path><path d="M577 448.6L619 452.4L598 359.9Z" fill="#962972" stroke="#962972"></path><path d="M276 405.7L348 400.6L312 362.7Z" fill="#001220" stroke="#001220"></path><path d="M367 444.4L312 478.4L397 480.6Z" fill="#642e6e" stroke="#642e6e"></path><path d="M620 464.6L619 452.4L577 448.6Z" fill="#001220" stroke="#001220"></path><path d="M679 348.7L691 392.9L690 331Z" fill="#7d2c72" stroke="#7d2c72"></path><path d="M637 79.9L622 37.9L601 57.7Z" fill="#af256f" stroke="#af256f"></path><path d="M601 57.7L550 0L531 27.9Z" fill="#051a30" stroke="#051a30"></path><path d="M672 62.9L622 37.9L637 79.9Z" fill="#7d2c72" stroke="#7d2c72"></path><path d="M263 393.6L312 362.7L269 295.9Z" fill="#642e6e" stroke="#642e6e"></path><path d="M231 138.7L245 156.4L266 142.6Z" fill="#20264e" stroke="#20264e"></path><path d="M245 156.4L228 167.3L274 213.4Z" fill="#7d2c72" stroke="#7d2c72"></path><path d="M622 37.9L550 0L601 57.7Z" fill="#7d2c72" stroke="#7d2c72"></path><path d="M432 0L396 0L392 31.9Z" fill="#051a30" stroke="#051a30"></path><path d="M343 60.7L276 75.9L353 79.6Z" fill="#4b2d66" stroke="#4b2d66"></path><path d="M230 164.6L228 167.3L245 156.4Z" fill="#051a30" stroke="#051a30"></path><path d="M217 294.1L269 295.9L251 286.1Z" fill="#342a5b" stroke="#342a5b"></path><path d="M211 356L263 393.6L269 295.9Z" fill="#0f213f" stroke="#0f213f"></path><path d="M297 47.9L276 75.9L343 60.7Z" fill="#001220" stroke="#001220"></path><path d="M230 164.6L231 138.7L228 167.3Z" fill="#642e6e" stroke="#642e6e"></path><path d="M187 249L251 286.1L274 213.4Z" fill="#c62368" stroke="#c62368"></path><path d="M211 356L260 395.9L263 393.6Z" fill="#4b2d66" stroke="#4b2d66"></path><path d="M263 393.6L260 395.9L276 405.7Z" fill="#642e6e" stroke="#642e6e"></path><path d="M265 473.4L312 478.4L310 435.7Z" fill="#642e6e" stroke="#642e6e"></path><path d="M397 480.6L459 506.1L476 472.3Z" fill="#c62368" stroke="#c62368"></path><path d="M532 483.4L543 513.3L575 474.6Z" fill="#642e6e" stroke="#642e6e"></path><path d="M655 452.4L652 436.6L619 452.4Z" fill="#c62368" stroke="#c62368"></path><path d="M619 452.4L652 436.6L598 359.9Z" fill="#342a5b" stroke="#342a5b"></path><path d="M756 303L752 253L718 273.1Z" fill="#0f213f" stroke="#0f213f"></path><path d="M652 436.6L691 392.9L598 359.9Z" fill="#342a5b" stroke="#342a5b"></path><path d="M575 474.6L620 464.6L577 448.6Z" fill="#001220" stroke="#001220"></path><path d="M599 527.1L620 464.6L575 474.6Z" fill="#051a30" stroke="#051a30"></path><path d="M396 0L297 47.9L343 60.7Z" fill="#c62368" stroke="#c62368"></path><path d="M276 75.9L231 138.7L266 142.6Z" fill="#051a30" stroke="#051a30"></path><path d="M655 452.4L658 435.7L652 436.6Z" fill="#642e6e" stroke="#642e6e"></path><path d="M652 436.6L658 435.7L691 392.9Z" fill="#001220" stroke="#001220"></path><path d="M713 85.7L672 62.9L661 139.4Z" fill="#af256f" stroke="#af256f"></path><path d="M622 37.9L635 0L550 0Z" fill="#20264e" stroke="#20264e"></path><path d="M725 130.7L661 139.4L710 238.1Z" fill="#342a5b" stroke="#342a5b"></path><path d="M752 253L744 237.3L718 273.1Z" fill="#20264e" stroke="#20264e"></path><path d="M718 273.1L744 237.3L710 238.1Z" fill="#c62368" stroke="#c62368"></path><path d="M459 506.1L498 516.4L476 472.3Z" fill="#c62368" stroke="#c62368"></path><path d="M658 435.7L688 414.7L691 392.9Z" fill="#001220" stroke="#001220"></path><path d="M756 303L718 273.1L690 331Z" fill="#af256f" stroke="#af256f"></path><path d="M696 484.4L688 414.7L658 435.7Z" fill="#c62368" stroke="#c62368"></path><path d="M622 530.3L655 452.4L620 464.6Z" fill="#642e6e" stroke="#642e6e"></path><path d="M620 464.6L655 452.4L619 452.4Z" fill="#0f213f" stroke="#0f213f"></path><path d="M459 506.1L478 524.3L498 516.4Z" fill="#642e6e" stroke="#642e6e"></path><path d="M397 480.6L456 520.1L459 506.1Z" fill="#001220" stroke="#001220"></path><path d="M380 536.3L456 520.1L397 480.6Z" fill="#001220" stroke="#001220"></path><path d="M758 174.3L725 130.7L710 238.1Z" fill="#af256f" stroke="#af256f"></path><path d="M533 569.1L543 513.3L498 516.4Z" fill="#0f213f" stroke="#0f213f"></path><path d="M498 516.4L543 513.3L532 483.4Z" fill="#342a5b" stroke="#342a5b"></path><path d="M756 303L690 331L773 332Z" fill="#001220" stroke="#001220"></path><path d="M744 237.3L761 221.4L710 238.1Z" fill="#7d2c72" stroke="#7d2c72"></path><path d="M456 520.1L478 524.3L459 506.1Z" fill="#962972" stroke="#962972"></path><path d="M297 47.9L264 58.7L276 75.9Z" fill="#642e6e" stroke="#642e6e"></path><path d="M276 75.9L235 55.9L231 138.7Z" fill="#342a5b" stroke="#342a5b"></path><path d="M235 55.9L264 58.7L264 0Z" fill="#0f213f" stroke="#0f213f"></path><path d="M732 107.6L726 119.4L725 130.7Z" fill="#001220" stroke="#001220"></path><path d="M725 130.7L726 119.4L661 139.4Z" fill="#7d2c72" stroke="#7d2c72"></path><path d="M265 473.4L310 435.7L276 405.7Z" fill="#051a30" stroke="#051a30"></path><path d="M310 435.7L312 478.4L367 444.4Z" fill="#051a30" stroke="#051a30"></path><path d="M217 294.1L211 356L269 295.9Z" fill="#0f213f" stroke="#0f213f"></path><path d="M236 455.6L265 473.4L276 405.7Z" fill="#7d2c72" stroke="#7d2c72"></path><path d="M189 377.7L211 356L169 378.6Z" fill="#20264e" stroke="#20264e"></path><path d="M167 202.1L187 249L228 167.3Z" fill="#0f213f" stroke="#0f213f"></path><path d="M228 167.3L187 249L274 213.4Z" fill="#342a5b" stroke="#342a5b"></path><path d="M726 119.4L713 85.7L661 139.4Z" fill="#af256f" stroke="#af256f"></path><path d="M764 248.1L761 221.4L744 237.3Z" fill="#001220" stroke="#001220"></path><path d="M773 332L690 331L758 379.9Z" fill="#342a5b" stroke="#342a5b"></path><path d="M752 253L764 248.1L744 237.3Z" fill="#7d2c72" stroke="#7d2c72"></path><path d="M756 303L764 248.1L752 253Z" fill="#7d2c72" stroke="#7d2c72"></path><path d="M758 174.3L732 107.6L725 130.7Z" fill="#051a30" stroke="#051a30"></path><path d="M726 119.4L732 107.6L713 85.7Z" fill="#051a30" stroke="#051a30"></path><path d="M764 182.3L758 174.3L761 221.4Z" fill="#342a5b" stroke="#342a5b"></path><path d="M761 221.4L758 174.3L710 238.1Z" fill="#af256f" stroke="#af256f"></path><path d="M684 0L635 0L672 62.9Z" fill="#af256f" stroke="#af256f"></path><path d="M672 62.9L635 0L622 37.9Z" fill="#051a30" stroke="#051a30"></path><path d="M169 122.4L188 168.3L231 138.7Z" fill="#342a5b" stroke="#342a5b"></path><path d="M231 138.7L188 168.3L228 167.3Z" fill="#af256f" stroke="#af256f"></path><path d="M809 188.3L764 182.3L761 221.4Z" fill="#642e6e" stroke="#642e6e"></path><path d="M828 132.6L795 66.9L732 107.6Z" fill="#af256f" stroke="#af256f"></path><path d="M265 0L264 58.7L297 47.9Z" fill="#962972" stroke="#962972"></path><path d="M264 58.7L235 55.9L276 75.9Z" fill="#342a5b" stroke="#342a5b"></path><path d="M312 478.4L380 536.3L397 480.6Z" fill="#642e6e" stroke="#642e6e"></path><path d="M456 520.1L443 563.3L478 524.3Z" fill="#642e6e" stroke="#642e6e"></path><path d="M533 569.1L599 527.1L543 513.3Z" fill="#4b2d66" stroke="#4b2d66"></path><path d="M543 513.3L599 527.1L575 474.6Z" fill="#001220" stroke="#001220"></path><path d="M756 398.7L691 392.9L747 427.6Z" fill="#c62368" stroke="#c62368"></path><path d="M533 569.1L498 516.4L478 524.3Z" fill="#962972" stroke="#962972"></path><path d="M135 203.4L167 202.1L188 168.3Z" fill="#af256f" stroke="#af256f"></path><path d="M188 168.3L167 202.1L228 167.3Z" fill="#0f213f" stroke="#0f213f"></path><path d="M151 286.9L211 356L217 294.1Z" fill="#af256f" stroke="#af256f"></path><path d="M236 455.6L276 405.7L260 395.9Z" fill="#c62368" stroke="#c62368"></path><path d="M312 478.4L359 553.1L380 536.3Z" fill="#c62368" stroke="#c62368"></path><path d="M758 379.9L691 392.9L756 398.7Z" fill="#0f213f" stroke="#0f213f"></path><path d="M758 379.9L690 331L691 392.9Z" fill="#4b2d66" stroke="#4b2d66"></path><path d="M756 303L824 271L764 248.1Z" fill="#7d2c72" stroke="#7d2c72"></path><path d="M764 248.1L809 188.3L761 221.4Z" fill="#20264e" stroke="#20264e"></path><path d="M265 473.4L294 502.3L312 478.4Z" fill="#20264e" stroke="#20264e"></path><path d="M151 286.9L217 294.1L187 249Z" fill="#c62368" stroke="#c62368"></path><path d="M211 356L202 402.7L260 395.9Z" fill="#af256f" stroke="#af256f"></path><path d="M189 377.7L202 402.7L211 356Z" fill="#af256f" stroke="#af256f"></path><path d="M691 392.9L688 414.7L747 427.6Z" fill="#c62368" stroke="#c62368"></path><path d="M202 402.7L236 455.6L260 395.9Z" fill="#20264e" stroke="#20264e"></path><path d="M265 473.4L253 518.4L294 502.3Z" fill="#962972" stroke="#962972"></path><path d="M235 55.9L201 77.6L231 138.7Z" fill="#4b2d66" stroke="#4b2d66"></path><path d="M441 600L443 563.3L380 536.3Z" fill="#0f213f" stroke="#0f213f"></path><path d="M380 536.3L443 563.3L456 520.1Z" fill="#20264e" stroke="#20264e"></path><path d="M396 0L265 0L297 47.9Z" fill="#001220" stroke="#001220"></path><path d="M235 55.9L196 66.9L201 77.6Z" fill="#001220" stroke="#001220"></path><path d="M696 484.4L658 435.7L655 452.4Z" fill="#20264e" stroke="#20264e"></path><path d="M758 379.9L790 370.9L773 332Z" fill="#7d2c72" stroke="#7d2c72"></path><path d="M624 533.1L622 530.3L599 527.1Z" fill="#20264e" stroke="#20264e"></path><path d="M599 527.1L622 530.3L620 464.6Z" fill="#4b2d66" stroke="#4b2d66"></path><path d="M265 0L264 0L264 58.7Z" fill="#7d2c72" stroke="#7d2c72"></path><path d="M711 5.9L684 0L672 62.9Z" fill="#642e6e" stroke="#642e6e"></path><path d="M711 5.9L672 62.9L713 85.7Z" fill="#342a5b" stroke="#342a5b"></path><path d="M126 257.3L151 286.9L187 249Z" fill="#642e6e" stroke="#642e6e"></path><path d="M579 600L624 533.1L599 527.1Z" fill="#20264e" stroke="#20264e"></path><path d="M622 530.3L696 484.4L655 452.4Z" fill="#20264e" stroke="#20264e"></path><path d="M668 546.3L696 484.4L622 530.3Z" fill="#af256f" stroke="#af256f"></path><path d="M201 77.6L169 122.4L231 138.7Z" fill="#342a5b" stroke="#342a5b"></path><path d="M167 202.1L130 233.1L187 249Z" fill="#051a30" stroke="#051a30"></path><path d="M294 502.3L359 553.1L312 478.4Z" fill="#20264e" stroke="#20264e"></path><path d="M723 475.3L747 427.6L688 414.7Z" fill="#642e6e" stroke="#642e6e"></path><path d="M232 0L196 66.9L235 55.9Z" fill="#c62368" stroke="#c62368"></path><path d="M201 77.6L196 66.9L169 122.4Z" fill="#642e6e" stroke="#642e6e"></path><path d="M483 605.1L533 569.1L478 524.3Z" fill="#051a30" stroke="#051a30"></path><path d="M236 455.6L233 471.6L265 473.4Z" fill="#af256f" stroke="#af256f"></path><path d="M294 502.3L291 554.3L359 553.1Z" fill="#af256f" stroke="#af256f"></path><path d="M217 461.3L233 471.6L236 455.6Z" fill="#20264e" stroke="#20264e"></path><path d="M217 461.3L236 455.6L202 402.7Z" fill="#051a30" stroke="#051a30"></path><path d="M151 286.9L169 378.6L211 356Z" fill="#0f213f" stroke="#0f213f"></path><path d="M189 377.7L169 378.6L202 402.7Z" fill="#20264e" stroke="#20264e"></path><path d="M180 438.4L217 461.3L202 402.7Z" fill="#001220" stroke="#001220"></path><path d="M247 514.3L253 518.4L265 473.4Z" fill="#051a30" stroke="#051a30"></path><path d="M715 0L711 5.9L775 35.7Z" fill="#0f213f" stroke="#0f213f"></path><path d="M714 0L711 5.9L715 0Z" fill="#20264e" stroke="#20264e"></path><path d="M711 5.9L692 -14.1L684 0Z" fill="#7d2c72" stroke="#7d2c72"></path><path d="M684 0L692 -14.1L635 0Z" fill="#342a5b" stroke="#342a5b"></path><path d="M635 0L692 -14.1L550 0Z" fill="#642e6e" stroke="#642e6e"></path><path d="M550 0L692 -14.1L491 0Z" fill="#051a30" stroke="#051a30"></path><path d="M491 0L692 -14.1L474 0Z" fill="#20264e" stroke="#20264e"></path><path d="M474 0L692 -14.1L439 0Z" fill="#001220" stroke="#001220"></path><path d="M439 0L692 -14.1L432 0Z" fill="#962972" stroke="#962972"></path><path d="M432 0L692 -14.1L396 0Z" fill="#001220" stroke="#001220"></path><path d="M396 0L692 -14.1L265 0Z" fill="#af256f" stroke="#af256f"></path><path d="M265 0L692 -14.1L264 0Z" fill="#642e6e" stroke="#642e6e"></path><path d="M748 518.1L723 475.3L696 484.4Z" fill="#001220" stroke="#001220"></path><path d="M696 484.4L723 475.3L688 414.7Z" fill="#20264e" stroke="#20264e"></path><path d="M824 271L809 188.3L764 248.1Z" fill="#c62368" stroke="#c62368"></path><path d="M764 182.3L810 183.6L758 174.3Z" fill="#c62368" stroke="#c62368"></path><path d="M801 395.6L790 370.9L758 379.9Z" fill="#7d2c72" stroke="#7d2c72"></path><path d="M825 290.1L824 271L756 303Z" fill="#962972" stroke="#962972"></path><path d="M801 395.6L758 379.9L756 398.7Z" fill="#7d2c72" stroke="#7d2c72"></path><path d="M801 395.6L756 398.7L801 419.6Z" fill="#0f213f" stroke="#0f213f"></path><path d="M124 133.7L135 203.4L188 168.3Z" fill="#642e6e" stroke="#642e6e"></path><path d="M846 182.6L810 183.6L809 188.3Z" fill="#001220" stroke="#001220"></path><path d="M809 188.3L810 183.6L764 182.3Z" fill="#af256f" stroke="#af256f"></path><path d="M196 66.9L154 120.6L169 122.4Z" fill="#0f213f" stroke="#0f213f"></path><path d="M169 122.4L154 120.6L188 168.3Z" fill="#4b2d66" stroke="#4b2d66"></path><path d="M692 -14.1L233 0L264 0Z" fill="#20264e" stroke="#20264e"></path><path d="M264 0L233 0L235 55.9Z" fill="#af256f" stroke="#af256f"></path><path d="M113 122.4L124 133.7L154 120.6Z" fill="#0f213f" stroke="#0f213f"></path><path d="M711 5.9L714 0L692 -14.1Z" fill="#c62368" stroke="#c62368"></path><path d="M711 5.9L713 85.7L775 35.7Z" fill="#c62368" stroke="#c62368"></path><path d="M129 220.3L130 233.1L167 202.1Z" fill="#342a5b" stroke="#342a5b"></path><path d="M101 312L130 390.6L169 378.6Z" fill="#962972" stroke="#962972"></path><path d="M692 -14.1L232 0L233 0Z" fill="#7d2c72" stroke="#7d2c72"></path><path d="M233 0L232 0L235 55.9Z" fill="#0f213f" stroke="#0f213f"></path><path d="M714 0L715 0L692 -14.1Z" fill="#4b2d66" stroke="#4b2d66"></path><path d="M775 35.7L713 85.7L732 107.6Z" fill="#001220" stroke="#001220"></path><path d="M96 205.3L129 220.3L135 203.4Z" fill="#c62368" stroke="#c62368"></path><path d="M135 203.4L129 220.3L167 202.1Z" fill="#7d2c72" stroke="#7d2c72"></path><path d="M124 254.3L126 257.3L130 233.1Z" fill="#342a5b" stroke="#342a5b"></path><path d="M130 233.1L126 257.3L187 249Z" fill="#642e6e" stroke="#642e6e"></path><path d="M99 270.1L124 254.3L96 205.3Z" fill="#962972" stroke="#962972"></path><path d="M101 312L169 378.6L151 286.9Z" fill="#001220" stroke="#001220"></path><path d="M247 514.3L265 473.4L233 471.6Z" fill="#20264e" stroke="#20264e"></path><path d="M825 290.1L756 303L773 332Z" fill="#962972" stroke="#962972"></path><path d="M124 414.4L180 438.4L169 378.6Z" fill="#962972" stroke="#962972"></path><path d="M169 378.6L180 438.4L202 402.7Z" fill="#c62368" stroke="#c62368"></path><path d="M224 519.4L247 514.3L233 471.6Z" fill="#c62368" stroke="#c62368"></path><path d="M723 475.3L749 463.4L747 427.6Z" fill="#962972" stroke="#962972"></path><path d="M748 518.1L749 463.4L723 475.3Z" fill="#051a30" stroke="#051a30"></path><path d="M224 519.4L233 471.6L194 509.4Z" fill="#642e6e" stroke="#642e6e"></path><path d="M815 353.9L825 290.1L773 332Z" fill="#001220" stroke="#001220"></path><path d="M359 553.1L441 600L380 536.3Z" fill="#4b2d66" stroke="#4b2d66"></path><path d="M443 563.3L483 605.1L478 524.3Z" fill="#342a5b" stroke="#342a5b"></path><path d="M348 600L441 600L359 553.1Z" fill="#962972" stroke="#962972"></path><path d="M832 384.6L815 353.9L790 370.9Z" fill="#051a30" stroke="#051a30"></path><path d="M790 370.9L815 353.9L773 332Z" fill="#0f213f" stroke="#0f213f"></path><path d="M665 564.1L668 546.3L624 533.1Z" fill="#7d2c72" stroke="#7d2c72"></path><path d="M624 533.1L668 546.3L622 530.3Z" fill="#001220" stroke="#001220"></path><path d="M579 600L599 527.1L533 569.1Z" fill="#001220" stroke="#001220"></path><path d="M238 547.1L291 554.3L253 518.4Z" fill="#342a5b" stroke="#342a5b"></path><path d="M253 518.4L291 554.3L294 502.3Z" fill="#0f213f" stroke="#0f213f"></path><path d="M441 600L483 605.1L443 563.3Z" fill="#af256f" stroke="#af256f"></path><path d="M801 419.6L756 398.7L747 427.6Z" fill="#001220" stroke="#001220"></path><path d="M483 605.1L539 600L533 569.1Z" fill="#342a5b" stroke="#342a5b"></path><path d="M483 605.1L547 600L539 600Z" fill="#20264e" stroke="#20264e"></path><path d="M539 600L547 600L533 569.1Z" fill="#20264e" stroke="#20264e"></path><path d="M483 605.1L554 600L547 600Z" fill="#c62368" stroke="#c62368"></path><path d="M547 600L554 600L533 569.1Z" fill="#342a5b" stroke="#342a5b"></path><path d="M113 122.4L154 120.6L138 53.7Z" fill="#c62368" stroke="#c62368"></path><path d="M154 120.6L124 133.7L188 168.3Z" fill="#642e6e" stroke="#642e6e"></path><path d="M96 205.3L124 254.3L130 233.1Z" fill="#4b2d66" stroke="#4b2d66"></path><path d="M795 66.9L775 35.7L732 107.6Z" fill="#c62368" stroke="#c62368"></path><path d="M715 0L807 0L692 -14.1Z" fill="#001220" stroke="#001220"></path><path d="M828 132.6L732 107.6L758 174.3Z" fill="#962972" stroke="#962972"></path><path d="M828 132.6L758 174.3L810 183.6Z" fill="#962972" stroke="#962972"></path><path d="M795 66.9L780 37.7L775 35.7Z" fill="#642e6e" stroke="#642e6e"></path><path d="M775 35.7L807 0L715 0Z" fill="#642e6e" stroke="#642e6e"></path><path d="M483 605.1L579 600L554 600Z" fill="#962972" stroke="#962972"></path><path d="M554 600L579 600L533 569.1Z" fill="#7d2c72" stroke="#7d2c72"></path><path d="M194 509.4L233 471.6L217 461.3Z" fill="#c62368" stroke="#c62368"></path><path d="M247 514.3L238 547.1L253 518.4Z" fill="#642e6e" stroke="#642e6e"></path><path d="M803 446.4L747 427.6L749 463.4Z" fill="#4b2d66" stroke="#4b2d66"></path><path d="M803 446.4L801 419.6L747 427.6Z" fill="#4b2d66" stroke="#4b2d66"></path><path d="M832 384.6L833 366.7L815 353.9Z" fill="#af256f" stroke="#af256f"></path><path d="M846 182.6L828 132.6L810 183.6Z" fill="#051a30" stroke="#051a30"></path><path d="M846 182.6L809 188.3L862 197.4Z" fill="#642e6e" stroke="#642e6e"></path><path d="M579 600L665 564.1L624 533.1Z" fill="#af256f" stroke="#af256f"></path><path d="M668 546.3L748 518.1L696 484.4Z" fill="#af256f" stroke="#af256f"></path><path d="M99 270.1L151 286.9L126 257.3Z" fill="#c62368" stroke="#c62368"></path><path d="M194 509.4L220 531.1L224 519.4Z" fill="#c62368" stroke="#c62368"></path><path d="M579 600L667 566.3L665 564.1Z" fill="#642e6e" stroke="#642e6e"></path><path d="M665 564.1L667 566.3L668 546.3Z" fill="#051a30" stroke="#051a30"></path><path d="M96 205.3L130 233.1L129 220.3Z" fill="#af256f" stroke="#af256f"></path><path d="M124 254.3L99 270.1L126 257.3Z" fill="#7d2c72" stroke="#7d2c72"></path><path d="M306 600L359 553.1L291 554.3Z" fill="#001220" stroke="#001220"></path><path d="M306 600L348 600L359 553.1Z" fill="#051a30" stroke="#051a30"></path><path d="M441 600L348 600L483 605.1Z" fill="#051a30" stroke="#051a30"></path><path d="M862 197.4L824 271L870 257.1Z" fill="#7d2c72" stroke="#7d2c72"></path><path d="M862 197.4L809 188.3L824 271Z" fill="#4b2d66" stroke="#4b2d66"></path><path d="M99 270.1L101 312L151 286.9Z" fill="#962972" stroke="#962972"></path><path d="M89 172.6L96 205.3L135 203.4Z" fill="#4b2d66" stroke="#4b2d66"></path><path d="M832 384.6L790 370.9L801 395.6Z" fill="#4b2d66" stroke="#4b2d66"></path><path d="M815 353.9L833 366.7L825 290.1Z" fill="#001220" stroke="#001220"></path><path d="M138 53.7L154 120.6L196 66.9Z" fill="#962972" stroke="#962972"></path><path d="M124 133.7L89 172.6L135 203.4Z" fill="#342a5b" stroke="#342a5b"></path><path d="M101 312L121 390.9L130 390.6Z" fill="#001220" stroke="#001220"></path><path d="M130 390.6L124 414.4L169 378.6Z" fill="#962972" stroke="#962972"></path><path d="M194 509.4L217 461.3L163 500.3Z" fill="#20264e" stroke="#20264e"></path><path d="M224 519.4L238 547.1L247 514.3Z" fill="#962972" stroke="#962972"></path><path d="M220 531.1L238 547.1L224 519.4Z" fill="#4b2d66" stroke="#4b2d66"></path><path d="M801 419.6L832 384.6L801 395.6Z" fill="#051a30" stroke="#051a30"></path><path d="M870 257.1L824 271L825 290.1Z" fill="#962972" stroke="#962972"></path><path d="M163 500.3L217 461.3L180 438.4Z" fill="#962972" stroke="#962972"></path><path d="M220 531.1L216 535.1L238 547.1Z" fill="#051a30" stroke="#051a30"></path><path d="M232 0L138 53.7L196 66.9Z" fill="#051a30" stroke="#051a30"></path><path d="M810 469.4L803 446.4L749 463.4Z" fill="#962972" stroke="#962972"></path><path d="M801 419.6L856 391.9L832 384.6Z" fill="#c62368" stroke="#c62368"></path><path d="M727 600L748 518.1L668 546.3Z" fill="#0f213f" stroke="#0f213f"></path><path d="M194 509.4L216 535.1L220 531.1Z" fill="#342a5b" stroke="#342a5b"></path><path d="M81 415.7L124 414.4L121 390.9Z" fill="#342a5b" stroke="#342a5b"></path><path d="M121 390.9L124 414.4L130 390.6Z" fill="#7d2c72" stroke="#7d2c72"></path><path d="M113 122.4L89 172.6L124 133.7Z" fill="#0f213f" stroke="#0f213f"></path><path d="M65 274.1L73 291L99 270.1Z" fill="#051a30" stroke="#051a30"></path><path d="M73 291L81 329.9L101 312Z" fill="#051a30" stroke="#051a30"></path><path d="M66 128.4L89 172.6L113 122.4Z" fill="#962972" stroke="#962972"></path><path d="M870 257.1L900 289.9L900 281Z" fill="#342a5b" stroke="#342a5b"></path><path d="M846 182.6L866 152.4L828 132.6Z" fill="#342a5b" stroke="#342a5b"></path><path d="M828 132.6L858 78.9L795 66.9Z" fill="#20264e" stroke="#20264e"></path><path d="M89 172.6L86 180.6L96 205.3Z" fill="#0f213f" stroke="#0f213f"></path><path d="M304 600L306 600L291 554.3Z" fill="#051a30" stroke="#051a30"></path><path d="M348 600L306 600L483 605.1Z" fill="#342a5b" stroke="#342a5b"></path><path d="M304 600L291 554.3L288 600.1Z" fill="#962972" stroke="#962972"></path><path d="M288 600.1L291 554.3L238 547.1Z" fill="#7d2c72" stroke="#7d2c72"></path><path d="M306 600L288 600.1L483 605.1Z" fill="#0f213f" stroke="#0f213f"></path><path d="M781 505.1L773 504.1L786 517.3Z" fill="#4b2d66" stroke="#4b2d66"></path><path d="M748 518.1L773 504.1L749 463.4Z" fill="#001220" stroke="#001220"></path><path d="M870 257.1L825 290.1L900 289.9Z" fill="#0f213f" stroke="#0f213f"></path><path d="M217 600L288 600.1L238 547.1Z" fill="#051a30" stroke="#051a30"></path><path d="M304 600L288 600.1L306 600Z" fill="#20264e" stroke="#20264e"></path><path d="M73 291L101 312L99 270.1Z" fill="#642e6e" stroke="#642e6e"></path><path d="M101 312L81 329.9L121 390.9Z" fill="#af256f" stroke="#af256f"></path><path d="M194 509.4L181 549.1L216 535.1Z" fill="#642e6e" stroke="#642e6e"></path><path d="M213 600L217 600L238 547.1Z" fill="#0f213f" stroke="#0f213f"></path><path d="M124 414.4L163 500.3L180 438.4Z" fill="#0f213f" stroke="#0f213f"></path><path d="M181 549.1L163 500.3L95 527.3Z" fill="#001220" stroke="#001220"></path><path d="M761 527.4L773 504.1L748 518.1Z" fill="#051a30" stroke="#051a30"></path><path d="M773 504.1L810 469.4L749 463.4Z" fill="#4b2d66" stroke="#4b2d66"></path><path d="M803 446.4L856 391.9L801 419.6Z" fill="#7d2c72" stroke="#7d2c72"></path><path d="M65 274.1L99 270.1L96 205.3Z" fill="#c62368" stroke="#c62368"></path><path d="M900 182.4L866 152.4L862 197.4Z" fill="#0f213f" stroke="#0f213f"></path><path d="M862 197.4L866 152.4L846 182.6Z" fill="#af256f" stroke="#af256f"></path><path d="M795 66.9L807 0L780 37.7Z" fill="#c62368" stroke="#c62368"></path><path d="M727 600L761 527.4L748 518.1Z" fill="#001220" stroke="#001220"></path><path d="M781 505.1L810 469.4L773 504.1Z" fill="#af256f" stroke="#af256f"></path><path d="M832 384.6L856 391.9L833 366.7Z" fill="#7d2c72" stroke="#7d2c72"></path><path d="M101 66.7L93 97.9L113 122.4Z" fill="#af256f" stroke="#af256f"></path><path d="M89 172.6L66 128.4L86 180.6Z" fill="#c62368" stroke="#c62368"></path><path d="M0 263.1L65 274.1L0 190.3Z" fill="#642e6e" stroke="#642e6e"></path><path d="M65 274.1L96 205.3L0 190.3Z" fill="#af256f" stroke="#af256f"></path><path d="M26 338L56 354.9L81 329.9Z" fill="#af256f" stroke="#af256f"></path><path d="M888 472.3L856 391.9L803 446.4Z" fill="#7d2c72" stroke="#7d2c72"></path><path d="M483 605.1L681 600L579 600Z" fill="#001220" stroke="#001220"></path><path d="M579 600L681 600L667 566.3Z" fill="#051a30" stroke="#051a30"></path><path d="M667 566.3L727 600L668 546.3Z" fill="#642e6e" stroke="#642e6e"></path><path d="M138 53.7L101 66.7L113 122.4Z" fill="#af256f" stroke="#af256f"></path><path d="M78 39.9L101 66.7L138 53.7Z" fill="#af256f" stroke="#af256f"></path><path d="M858 78.9L807 0L795 66.9Z" fill="#962972" stroke="#962972"></path><path d="M780 37.7L807 0L775 35.7Z" fill="#7d2c72" stroke="#7d2c72"></path><path d="M814 511.3L786 517.3L804 602.1Z" fill="#4b2d66" stroke="#4b2d66"></path><path d="M761 527.4L786 517.3L773 504.1Z" fill="#962972" stroke="#962972"></path><path d="M781 505.1L814 511.3L810 469.4Z" fill="#962972" stroke="#962972"></path><path d="M900 450.4L888 386.7L856 391.9Z" fill="#0f213f" stroke="#0f213f"></path><path d="M866 152.4L858 78.9L828 132.6Z" fill="#af256f" stroke="#af256f"></path><path d="M95 527.3L163 500.3L124 414.4Z" fill="#20264e" stroke="#20264e"></path><path d="M163 500.3L181 549.1L194 509.4Z" fill="#7d2c72" stroke="#7d2c72"></path><path d="M70 62.7L66 128.4L93 97.9Z" fill="#962972" stroke="#962972"></path><path d="M93 97.9L66 128.4L113 122.4Z" fill="#4b2d66" stroke="#4b2d66"></path><path d="M900 281L900 245.3L870 257.1Z" fill="#7d2c72" stroke="#7d2c72"></path><path d="M870 257.1L900 208.1L862 197.4Z" fill="#0f213f" stroke="#0f213f"></path><path d="M866 152.4L900 95.7L858 78.9Z" fill="#4b2d66" stroke="#4b2d66"></path><path d="M900 289.9L825 290.1L900 352.7Z" fill="#4b2d66" stroke="#4b2d66"></path><path d="M900 245.3L900 208.1L870 257.1Z" fill="#c62368" stroke="#c62368"></path><path d="M56 354.9L121 390.9L81 329.9Z" fill="#af256f" stroke="#af256f"></path><path d="M56 354.9L81 415.7L121 390.9Z" fill="#af256f" stroke="#af256f"></path><path d="M900 352.7L825 290.1L833 366.7Z" fill="#962972" stroke="#962972"></path><path d="M900 208.1L900 182.4L862 197.4Z" fill="#4b2d66" stroke="#4b2d66"></path><path d="M26 338L73 291L65 274.1Z" fill="#af256f" stroke="#af256f"></path><path d="M26 338L81 329.9L73 291Z" fill="#642e6e" stroke="#642e6e"></path><path d="M786 517.3L814 511.3L781 505.1Z" fill="#342a5b" stroke="#342a5b"></path><path d="M856 391.9L900 352.7L833 366.7Z" fill="#001220" stroke="#001220"></path><path d="M781 600L786 517.3L761 527.4Z" fill="#af256f" stroke="#af256f"></path><path d="M232 0L116 0L138 53.7Z" fill="#342a5b" stroke="#342a5b"></path><path d="M101 66.7L70 62.7L93 97.9Z" fill="#642e6e" stroke="#642e6e"></path><path d="M692 -14.1L116 0L232 0Z" fill="#962972" stroke="#962972"></path><path d="M804 602.1L727 600L681 600Z" fill="#c62368" stroke="#c62368"></path><path d="M681 600L727 600L667 566.3Z" fill="#c62368" stroke="#c62368"></path><path d="M888 472.3L803 446.4L810 469.4Z" fill="#4b2d66" stroke="#4b2d66"></path><path d="M213 600L216 535.1L181 549.1Z" fill="#001220" stroke="#001220"></path><path d="M213 600L238 547.1L216 535.1Z" fill="#001220" stroke="#001220"></path><path d="M288 600.1L217 600L483 605.1Z" fill="#c62368" stroke="#c62368"></path><path d="M888 386.7L900 352.7L856 391.9Z" fill="#962972" stroke="#962972"></path><path d="M192 600L213 600L181 549.1Z" fill="#c62368" stroke="#c62368"></path><path d="M217 600L213 600L483 605.1Z" fill="#af256f" stroke="#af256f"></path><path d="M78 39.9L70 62.7L101 66.7Z" fill="#7d2c72" stroke="#7d2c72"></path><path d="M116 0L78 39.9L138 53.7Z" fill="#c62368" stroke="#c62368"></path><path d="M900 450.4L900 379.6L888 386.7Z" fill="#962972" stroke="#962972"></path><path d="M888 386.7L900 379.6L900 352.7Z" fill="#051a30" stroke="#051a30"></path><path d="M900 182.4L900 95.7L866 152.4Z" fill="#af256f" stroke="#af256f"></path><path d="M858 78.9L865 0L807 0Z" fill="#af256f" stroke="#af256f"></path><path d="M98 600L192 600L181 549.1Z" fill="#20264e" stroke="#20264e"></path><path d="M213 600L192 600L483 605.1Z" fill="#642e6e" stroke="#642e6e"></path><path d="M57 0L56 59.9L78 39.9Z" fill="#4b2d66" stroke="#4b2d66"></path><path d="M78 39.9L56 59.9L70 62.7Z" fill="#0f213f" stroke="#0f213f"></path><path d="M70 62.7L56 59.9L66 128.4Z" fill="#0f213f" stroke="#0f213f"></path><path d="M0 263.1L26 338L65 274.1Z" fill="#c62368" stroke="#c62368"></path><path d="M96 205.3L86 180.6L0 190.3Z" fill="#051a30" stroke="#051a30"></path><path d="M56 354.9L37 426.6L81 415.7Z" fill="#962972" stroke="#962972"></path><path d="M51 457.6L95 527.3L124 414.4Z" fill="#7d2c72" stroke="#7d2c72"></path><path d="M900 79.6L889 53.7L858 78.9Z" fill="#7d2c72" stroke="#7d2c72"></path><path d="M900 95.7L900 79.6L858 78.9Z" fill="#642e6e" stroke="#642e6e"></path><path d="M804 602.1L765 600L727 600Z" fill="#962972" stroke="#962972"></path><path d="M727 600L765 600L761 527.4Z" fill="#642e6e" stroke="#642e6e"></path><path d="M814 511.3L888 472.3L810 469.4Z" fill="#c62368" stroke="#c62368"></path><path d="M889 53.7L865 0L858 78.9Z" fill="#342a5b" stroke="#342a5b"></path><path d="M807 0L865 0L692 -14.1Z" fill="#af256f" stroke="#af256f"></path><path d="M804 602.1L781 600L765 600Z" fill="#051a30" stroke="#051a30"></path><path d="M765 600L781 600L761 527.4Z" fill="#962972" stroke="#962972"></path><path d="M51 457.6L124 414.4L81 415.7Z" fill="#051a30" stroke="#051a30"></path><path d="M0 384.7L37 426.6L56 354.9Z" fill="#20264e" stroke="#20264e"></path><path d="M900 507.3L888 472.3L814 511.3Z" fill="#20264e" stroke="#20264e"></path><path d="M37 426.6L51 457.6L81 415.7Z" fill="#4b2d66" stroke="#4b2d66"></path><path d="M888 472.3L900 450.4L856 391.9Z" fill="#962972" stroke="#962972"></path><path d="M0 190.3L86 180.6L66 128.4Z" fill="#7d2c72" stroke="#7d2c72"></path><path d="M26 338L0 358.9L56 354.9Z" fill="#001220" stroke="#001220"></path><path d="M3 137.6L0 190.3L66 128.4Z" fill="#001220" stroke="#001220"></path><path d="M900 79.6L900 26.9L889 53.7Z" fill="#0f213f" stroke="#0f213f"></path><path d="M889 53.7L900 26.9L865 0Z" fill="#051a30" stroke="#051a30"></path><path d="M0 130.7L3 137.6L0 124.4Z" fill="#051a30" stroke="#051a30"></path><path d="M116 0L57 0L78 39.9Z" fill="#20264e" stroke="#20264e"></path><path d="M0 124.4L3 137.6L66 128.4Z" fill="#962972" stroke="#962972"></path><path d="M692 -14.1L57 0L116 0Z" fill="#20264e" stroke="#20264e"></path><path d="M0 263.1L0 351L26 338Z" fill="#7d2c72" stroke="#7d2c72"></path><path d="M37 426.6L0 433.6L51 457.6Z" fill="#af256f" stroke="#af256f"></path><path d="M483 605.1L804 602.1L681 600Z" fill="#051a30" stroke="#051a30"></path><path d="M781 600L804 602.1L786 517.3Z" fill="#342a5b" stroke="#342a5b"></path><path d="M0 124.4L66 128.4L0 71.6Z" fill="#af256f" stroke="#af256f"></path><path d="M3 137.6L0 130.7L0 190.3Z" fill="#4b2d66" stroke="#4b2d66"></path><path d="M0 351L0 358.9L26 338Z" fill="#051a30" stroke="#051a30"></path><path d="M0 71.6L66 128.4L56 59.9Z" fill="#642e6e" stroke="#642e6e"></path><path d="M900 26.9L900 0L865 0Z" fill="#7d2c72" stroke="#7d2c72"></path><path d="M865 0L900 0L692 -14.1Z" fill="#0f213f" stroke="#0f213f"></path><path d="M0 358.9L0 384.7L56 354.9Z" fill="#642e6e" stroke="#642e6e"></path><path d="M34 513.1L86 554.1L95 527.3Z" fill="#342a5b" stroke="#342a5b"></path><path d="M34 513.1L95 527.3L51 457.6Z" fill="#642e6e" stroke="#642e6e"></path><path d="M95 527.3L86 554.1L181 549.1Z" fill="#7d2c72" stroke="#7d2c72"></path><path d="M692 -14.1L40 0L57 0Z" fill="#af256f" stroke="#af256f"></path><path d="M57 0L40 0L56 59.9Z" fill="#0f213f" stroke="#0f213f"></path><path d="M0 384.7L3 413.7L37 426.6Z" fill="#051a30" stroke="#051a30"></path><path d="M900 549.1L900 507.3L814 511.3Z" fill="#051a30" stroke="#051a30"></path><path d="M888 472.3L900 507.3L900 450.4Z" fill="#20264e" stroke="#20264e"></path><path d="M0 384.7L0 415.4L3 413.7Z" fill="#001220" stroke="#001220"></path><path d="M3 413.7L0 433.6L37 426.6Z" fill="#af256f" stroke="#af256f"></path><path d="M0 49.9L0 71.6L56 59.9Z" fill="#342a5b" stroke="#342a5b"></path><path d="M0 415.4L0 433.6L3 413.7Z" fill="#c62368" stroke="#c62368"></path><path d="M40 0L0 49.9L56 59.9Z" fill="#c62368" stroke="#c62368"></path><path d="M5 484.4L34 513.1L51 457.6Z" fill="#051a30" stroke="#051a30"></path><path d="M86 554.1L98 600L181 549.1Z" fill="#342a5b" stroke="#342a5b"></path><path d="M192 600L98 600L483 605.1Z" fill="#20264e" stroke="#20264e"></path><path d="M90 600L98 600L86 554.1Z" fill="#962972" stroke="#962972"></path><path d="M34 513.1L68 566.3L86 554.1Z" fill="#20264e" stroke="#20264e"></path><path d="M68 566.3L90 600L86 554.1Z" fill="#051a30" stroke="#051a30"></path><path d="M98 600L90 600L483 605.1Z" fill="#af256f" stroke="#af256f"></path><path d="M804 602.1L900 549.1L814 511.3Z" fill="#962972" stroke="#962972"></path><path d="M0 577.1L25 600L68 566.3Z" fill="#7d2c72" stroke="#7d2c72"></path><path d="M68 566.3L25 600L90 600Z" fill="#962972" stroke="#962972"></path><path d="M0 433.6L0 473.3L51 457.6Z" fill="#7d2c72" stroke="#7d2c72"></path><path d="M0 473.3L5 484.4L51 457.6Z" fill="#051a30" stroke="#051a30"></path><path d="M692 -14.1L0 0L40 0Z" fill="#4b2d66" stroke="#4b2d66"></path><path d="M40 0L0 0L0 49.9Z" fill="#051a30" stroke="#051a30"></path><path d="M804 602.1L887 600L900 549.1Z" fill="#20264e" stroke="#20264e"></path><path d="M804 602.1L900 600L887 600Z" fill="#051a30" stroke="#051a30"></path><path d="M887 600L900 600L900 549.1Z" fill="#0f213f" stroke="#0f213f"></path><path d="M0 577.1L34 513.1L5 484.4Z" fill="#051a30" stroke="#051a30"></path><path d="M0 577.1L68 566.3L34 513.1Z" fill="#642e6e" stroke="#642e6e"></path><path d="M90 600L25 600L483 605.1Z" fill="#c62368" stroke="#c62368"></path><path d="M0 473.3L0 577.1L5 484.4Z" fill="#342a5b" stroke="#342a5b"></path><path d="M0 577.1L0 600L25 600Z" fill="#20264e" stroke="#20264e"></path><path d="M25 600L0 600L483 605.1Z" fill="#642e6e" stroke="#642e6e"></path></g></svg>