<svg id="visual" viewBox="0 0 900 300" width="900" height="300" xmlns="http://www.w3.org/2000/svg" xmlns:xlink="http://www.w3.org/1999/xlink" version="1.1"><path d="M0 37L13.7 39C27.3 41 54.7 45 82 43.5C109.3 42 136.7 35 163.8 34C191 33 218 38 245.2 38C272.3 38 299.7 33 327 32.5C354.3 32 381.7 36 409 37C436.3 38 463.7 36 491 33C518.3 30 545.7 26 573 25.5C600.3 25 627.7 28 654.8 30C682 32 709 33 736.2 33C763.3 33 790.7 32 818 29.5C845.3 27 872.7 23 886.3 21L900 19L900 0L886.3 0C872.7 0 845.3 0 818 0C790.7 0 763.3 0 736.2 0C709 0 682 0 654.8 0C627.7 0 600.3 0 573 0C545.7 0 518.3 0 491 0C463.7 0 436.3 0 409 0C381.7 0 354.3 0 327 0C299.7 0 272.3 0 245.2 0C218 0 191 0 163.8 0C136.7 0 109.3 0 82 0C54.7 0 27.3 0 13.7 0L0 0Z" fill="#001220"></path><path d="M0 97L13.7 101.5C27.3 106 54.7 115 82 116.5C109.3 118 136.7 112 163.8 106C191 100 218 94 245.2 100C272.3 106 299.7 124 327 136C354.3 148 381.7 154 409 144C436.3 134 463.7 108 491 99C518.3 90 545.7 98 573 100.5C600.3 103 627.7 100 654.8 107C682 114 709 131 736.2 138C763.3 145 790.7 142 818 137.5C845.3 133 872.7 127 886.3 124L900 121L900 17L886.3 19C872.7 21 845.3 25 818 27.5C790.7 30 763.3 31 736.2 31C709 31 682 30 654.8 28C627.7 26 600.3 23 573 23.5C545.7 24 518.3 28 491 31C463.7 34 436.3 36 409 35C381.7 34 354.3 30 327 30.5C299.7 31 272.3 36 245.2 36C218 36 191 31 163.8 32C136.7 33 109.3 40 82 41.5C54.7 43 27.3 39 13.7 37L0 35Z" fill="#7b7f86"></path><path d="M0 145L13.7 150.5C27.3 156 54.7 167 82 169C109.3 171 136.7 164 163.8 162C191 160 218 163 245.2 174C272.3 185 299.7 204 327 208.5C354.3 213 381.7 203 409 190.5C436.3 178 463.7 163 491 157C518.3 151 545.7 154 573 157C600.3 160 627.7 163 654.8 168.5C682 174 709 182 736.2 189.5C763.3 197 790.7 204 818 205C845.3 206 872.7 201 886.3 198.5L900 196L900 119L886.3 122C872.7 125 845.3 131 818 135.5C790.7 140 763.3 143 736.2 136C709 129 682 112 654.8 105C627.7 98 600.3 101 573 98.5C545.7 96 518.3 88 491 97C463.7 106 436.3 132 409 142C381.7 152 354.3 146 327 134C299.7 122 272.3 104 245.2 98C218 92 191 98 163.8 104C136.7 110 109.3 116 82 114.5C54.7 113 27.3 104 13.7 99.5L0 95Z" fill="#cccccc"></path><path d="M0 274L13.7 274.5C27.3 275 54.7 276 82 274.5C109.3 273 136.7 269 163.8 267.5C191 266 218 267 245.2 268C272.3 269 299.7 270 327 271.5C354.3 273 381.7 275 409 270C436.3 265 463.7 253 491 251.5C518.3 250 545.7 259 573 262C600.3 265 627.7 262 654.8 261C682 260 709 261 736.2 263.5C763.3 266 790.7 270 818 270C845.3 270 872.7 266 886.3 264L900 262L900 194L886.3 196.5C872.7 199 845.3 204 818 203C790.7 202 763.3 195 736.2 187.5C709 180 682 172 654.8 166.5C627.7 161 600.3 158 573 155C545.7 152 518.3 149 491 155C463.7 161 436.3 176 409 188.5C381.7 201 354.3 211 327 206.5C299.7 202 272.3 183 245.2 172C218 161 191 158 163.8 160C136.7 162 109.3 169 82 167C54.7 165 27.3 154 13.7 148.5L0 143Z" fill="#7b7f86"></path><path d="M0 301L13.7 301C27.3 301 54.7 301 82 301C109.3 301 136.7 301 163.8 301C191 301 218 301 245.2 301C272.3 301 299.7 301 327 301C354.3 301 381.7 301 409 301C436.3 301 463.7 301 491 301C518.3 301 545.7 301 573 301C600.3 301 627.7 301 654.8 301C682 301 709 301 736.2 301C763.3 301 790.7 301 818 301C845.3 301 872.7 301 886.3 301L900 301L900 260L886.3 262C872.7 264 845.3 268 818 268C790.7 268 763.3 264 736.2 261.5C709 259 682 258 654.8 259C627.7 260 600.3 263 573 260C545.7 257 518.3 248 491 249.5C463.7 251 436.3 263 409 268C381.7 273 354.3 271 327 269.5C299.7 268 272.3 267 245.2 266C218 265 191 264 163.8 265.5C136.7 267 109.3 271 82 272.5C54.7 274 27.3 273 13.7 272.5L0 272Z" fill="#001220"></path></svg>