<svg id="visual" viewBox="0 0 900 100" width="900" height="100" xmlns="http://www.w3.org/2000/svg" xmlns:xlink="http://www.w3.org/1999/xlink" version="1.1"><rect x="0" y="0" width="900" height="100" fill="#001220"></rect><path d="M0 63L5.8 65.8C11.7 68.7 23.3 74.3 34.8 76.5C46.3 78.7 57.7 77.3 69.2 75.8C80.7 74.3 92.3 72.7 103.8 71.3C115.3 70 126.7 69 138.2 68.2C149.7 67.3 161.3 66.7 173 68.3C184.7 70 196.3 74 207.8 76.8C219.3 79.7 230.7 81.3 242.2 79.2C253.7 77 265.3 71 277 66.2C288.7 61.3 300.3 57.7 311.8 59.3C323.3 61 334.7 68 346.2 73C357.7 78 369.3 81 380.8 79.5C392.3 78 403.7 72 415.2 71C426.7 70 438.3 74 450 73.2C461.7 72.3 473.3 66.7 484.8 64C496.3 61.3 507.7 61.7 519.2 66C530.7 70.3 542.3 78.7 553.8 79.3C565.3 80 576.7 73 588.2 71.5C599.7 70 611.3 74 623 76.7C634.7 79.3 646.3 80.7 657.8 80.7C669.3 80.7 680.7 79.3 692.2 77.5C703.7 75.7 715.3 73.3 727 68.8C738.7 64.3 750.3 57.7 761.8 55.7C773.3 53.7 784.7 56.3 796.2 57.5C807.7 58.7 819.3 58.3 830.8 62C842.3 65.7 853.7 73.3 865.2 74.3C876.7 75.3 888.3 69.7 894.2 66.8L900 64L900 101L894.2 101C888.3 101 876.7 101 865.2 101C853.7 101 842.3 101 830.8 101C819.3 101 807.7 101 796.2 101C784.7 101 773.3 101 761.8 101C750.3 101 738.7 101 727 101C715.3 101 703.7 101 692.2 101C680.7 101 669.3 101 657.8 101C646.3 101 634.7 101 623 101C611.3 101 599.7 101 588.2 101C576.7 101 565.3 101 553.8 101C542.3 101 530.7 101 519.2 101C507.7 101 496.3 101 484.8 101C473.3 101 461.7 101 450 101C438.3 101 426.7 101 415.2 101C403.7 101 392.3 101 380.8 101C369.3 101 357.7 101 346.2 101C334.7 101 323.3 101 311.8 101C300.3 101 288.7 101 277 101C265.3 101 253.7 101 242.2 101C230.7 101 219.3 101 207.8 101C196.3 101 184.7 101 173 101C161.3 101 149.7 101 138.2 101C126.7 101 115.3 101 103.8 101C92.3 101 80.7 101 69.2 101C57.7 101 46.3 101 34.8 101C23.3 101 11.7 101 5.8 101L0 101Z" fill="#C62368" stroke-linecap="round" stroke-linejoin="miter"></path></svg>