<svg id="visual" viewBox="0 0 900 300" width="900" height="300" xmlns="http://www.w3.org/2000/svg" xmlns:xlink="http://www.w3.org/1999/xlink" version="1.1"><rect x="0" y="0" width="900" height="300" fill="#001220"></rect><path d="M0 57L7.2 79.8C14.3 102.7 28.7 148.3 43 153.7C57.3 159 71.7 124 86 104C100.3 84 114.7 79 128.8 92C143 105 157 136 171.2 156.2C185.3 176.3 199.7 185.7 214 183.8C228.3 182 242.7 169 257 146.5C271.3 124 285.7 92 300 80.8C314.3 69.7 328.7 79.3 343 103C357.3 126.7 371.7 164.3 386 174.5C400.3 184.7 414.7 167.3 428.8 151C443 134.7 457 119.3 471.2 100.5C485.3 81.7 499.7 59.3 514 49C528.3 38.7 542.7 40.3 557 63.7C571.3 87 585.7 132 600 157.3C614.3 182.7 628.7 188.3 643 186.5C657.3 184.7 671.7 175.3 686 153.8C700.3 132.3 714.7 98.7 728.8 91.5C743 84.3 757 103.7 771.2 102.3C785.3 101 799.7 79 814 75.7C828.3 72.3 842.7 87.7 857 98C871.3 108.3 885.7 113.7 892.8 116.3L900 119" fill="none" stroke-linecap="round" stroke-linejoin="miter" stroke="#C62368" stroke-width="40"></path></svg>