<svg id="visual" viewBox="0 0 900 300" width="900" height="300" xmlns="http://www.w3.org/2000/svg" xmlns:xlink="http://www.w3.org/1999/xlink" version="1.1"><rect x="0" y="0" width="900" height="300" fill="#001220"></rect><path d="M0 176L43 176L43 223L86 223L86 127L129 127L129 150L171 150L171 138L214 138L214 176L257 176L257 257L300 257L300 180L343 180L343 183L386 183L386 199L429 199L429 257L471 257L471 220L514 220L514 150L557 150L557 212L600 212L600 147L643 147L643 167L686 167L686 206L729 206L729 128L771 128L771 214L814 214L814 181L857 181L857 152L900 152L900 174L900 301L900 301L857 301L857 301L814 301L814 301L771 301L771 301L729 301L729 301L686 301L686 301L643 301L643 301L600 301L600 301L557 301L557 301L514 301L514 301L471 301L471 301L429 301L429 301L386 301L386 301L343 301L343 301L300 301L300 301L257 301L257 301L214 301L214 301L171 301L171 301L129 301L129 301L86 301L86 301L43 301L43 301L0 301Z" fill="#C62368" stroke-linecap="square" stroke-linejoin="miter"></path></svg>