<?xml version="1.0" encoding="UTF-8"?>
<svg id="uuid-6a5a322b-4bf6-4d13-86b3-4166dc814dba" data-name="Ebene 1" xmlns="http://www.w3.org/2000/svg" xmlns:xlink="http://www.w3.org/1999/xlink" viewBox="0 0 640 640">
  <defs>
    <style>
      .uuid-2d63c16e-922c-446a-b8e2-40e86547a08c {
        fill: url(#uuid-9f894623-64bf-4350-b724-4869e3387dcc);
      }

      .uuid-2d63c16e-922c-446a-b8e2-40e86547a08c, .uuid-a982636c-776e-446a-ab47-1c54d35ae8ec {
        stroke-width: 0px;
      }

      .uuid-a982636c-776e-446a-ab47-1c54d35ae8ec {
        fill: url(#uuid-65e8b7c8-8a94-4070-bf96-353e346a6d4d);
      }
    </style>
    <linearGradient id="uuid-9f894623-64bf-4350-b724-4869e3387dcc" data-name="Unbenannter Verlauf 182" x1="93.71" y1="93.71" x2="546.37" y2="546.37" gradientTransform="translate(640 640) rotate(-180)" gradientUnits="userSpaceOnUse">
      <stop offset="0" stop-color="#b9fbff"/>
      <stop offset="1" stop-color="#e6ffe6"/>
    </linearGradient>
    <linearGradient id="uuid-65e8b7c8-8a94-4070-bf96-353e346a6d4d" data-name="Unbenannter Verlauf 163" x1="6.12" y1="319.64" x2="627.43" y2="320.21" gradientUnits="userSpaceOnUse">
      <stop offset="0" stop-color="#c04848"/>
      <stop offset="1" stop-color="#480048"/>
    </linearGradient>
  </defs>
  <rect class="uuid-2d63c16e-922c-446a-b8e2-40e86547a08c" width="640" height="640" transform="translate(640 640) rotate(180)"/>
  <path class="uuid-a982636c-776e-446a-ab47-1c54d35ae8ec" d="M630.59,503.48l-53.26-51.3h-260.01c17.49-19.59,269.92-304.46,280.71-315.67l-342.57.34,56.31,50.54h166.23l-202.24,228.43c-48.05,42.53-108.5,43.01-158.91-4.64l199.69-189.14C168.67,4.38-105.98,254.29,62.25,439.21c39.86,42.09,88.56,63.4,135.55,64.08l-.17.19h432.96ZM99.18,217.68c43.11-40.83,96.13-42.28,148.96,5.98l-160.7,152.21c-38.08-58.51-29.64-118.99,11.74-158.19Z"/>
</svg>