<svg id="visual" viewBox="0 0 900 300" width="900" height="300" xmlns="http://www.w3.org/2000/svg" xmlns:xlink="http://www.w3.org/1999/xlink" version="1.1"><rect x="0" y="0" width="900" height="300" fill="#001220"></rect><path d="M0 263L10 267.5C20 272 40 281 60 284.8C80 288.7 100 287.3 120 283.8C140 280.3 160 274.7 180 273.8C200 273 220 277 240 280.2C260 283.3 280 285.7 300 282.5C320 279.3 340 270.7 360 268.5C380 266.3 400 270.7 420 274.3C440 278 460 281 480 279.7C500 278.3 520 272.7 540 271.2C560 269.7 580 272.3 600 273.8C620 275.3 640 275.7 660 276.2C680 276.7 700 277.3 720 277.5C740 277.7 760 277.3 780 276C800 274.7 820 272.3 840 271C860 269.7 880 269.3 890 269.2L900 269L900 0L890 0C880 0 860 0 840 0C820 0 800 0 780 0C760 0 740 0 720 0C700 0 680 0 660 0C640 0 620 0 600 0C580 0 560 0 540 0C520 0 500 0 480 0C460 0 440 0 420 0C400 0 380 0 360 0C340 0 320 0 300 0C280 0 260 0 240 0C220 0 200 0 180 0C160 0 140 0 120 0C100 0 80 0 60 0C40 0 20 0 10 0L0 0Z" fill="#ffffff"></path><path d="M0 250L10 252.5C20 255 40 260 60 262.2C80 264.3 100 263.7 120 259.7C140 255.7 160 248.3 180 246.7C200 245 220 249 240 252.7C260 256.3 280 259.7 300 260.5C320 261.3 340 259.7 360 259.2C380 258.7 400 259.3 420 260.3C440 261.3 460 262.7 480 259.3C500 256 520 248 540 246.2C560 244.3 580 248.7 600 251.8C620 255 640 257 660 259.2C680 261.3 700 263.7 720 262.8C740 262 760 258 780 258C800 258 820 262 840 262.2C860 262.3 880 258.7 890 256.8L900 255L900 0L890 0C880 0 860 0 840 0C820 0 800 0 780 0C760 0 740 0 720 0C700 0 680 0 660 0C640 0 620 0 600 0C580 0 560 0 540 0C520 0 500 0 480 0C460 0 440 0 420 0C400 0 380 0 360 0C340 0 320 0 300 0C280 0 260 0 240 0C220 0 200 0 180 0C160 0 140 0 120 0C100 0 80 0 60 0C40 0 20 0 10 0L0 0Z" fill="#fcedf0"></path><path d="M0 222L10 222.8C20 223.7 40 225.3 60 225.8C80 226.3 100 225.7 120 225.3C140 225 160 225 180 226.5C200 228 220 231 240 230C260 229 280 224 300 223.2C320 222.3 340 225.7 360 227.3C380 229 400 229 420 229.7C440 230.3 460 231.7 480 232.8C500 234 520 235 540 233.3C560 231.7 580 227.3 600 227.8C620 228.3 640 233.7 660 236C680 238.3 700 237.7 720 237.8C740 238 760 239 780 238C800 237 820 234 840 231C860 228 880 225 890 223.5L900 222L900 0L890 0C880 0 860 0 840 0C820 0 800 0 780 0C760 0 740 0 720 0C700 0 680 0 660 0C640 0 620 0 600 0C580 0 560 0 540 0C520 0 500 0 480 0C460 0 440 0 420 0C400 0 380 0 360 0C340 0 320 0 300 0C280 0 260 0 240 0C220 0 200 0 180 0C160 0 140 0 120 0C100 0 80 0 60 0C40 0 20 0 10 0L0 0Z" fill="#f9dbe2"></path><path d="M0 205L10 205.5C20 206 40 207 60 208.8C80 210.7 100 213.3 120 211C140 208.7 160 201.3 180 198.3C200 195.3 220 196.7 240 200.3C260 204 280 210 300 213.2C320 216.3 340 216.7 360 213.2C380 209.7 400 202.3 420 202.5C440 202.7 460 210.3 480 214C500 217.7 520 217.3 540 215.3C560 213.3 580 209.7 600 209C620 208.3 640 210.7 660 211.5C680 212.3 700 211.7 720 212C740 212.3 760 213.7 780 210.8C800 208 820 201 840 198.5C860 196 880 198 890 199L900 200L900 0L890 0C880 0 860 0 840 0C820 0 800 0 780 0C760 0 740 0 720 0C700 0 680 0 660 0C640 0 620 0 600 0C580 0 560 0 540 0C520 0 500 0 480 0C460 0 440 0 420 0C400 0 380 0 360 0C340 0 320 0 300 0C280 0 260 0 240 0C220 0 200 0 180 0C160 0 140 0 120 0C100 0 80 0 60 0C40 0 20 0 10 0L0 0Z" fill="#f6c8d3"></path><path d="M0 173L10 173.8C20 174.7 40 176.3 60 176.7C80 177 100 176 120 176.2C140 176.3 160 177.7 180 178.8C200 180 220 181 240 181.2C260 181.3 280 180.7 300 182.3C320 184 340 188 360 189.3C380 190.7 400 189.3 420 187.7C440 186 460 184 480 184.3C500 184.7 520 187.3 540 187.5C560 187.7 580 185.3 600 183.5C620 181.7 640 180.3 660 181.3C680 182.3 700 185.7 720 184.7C740 183.7 760 178.3 780 178.8C800 179.3 820 185.7 840 188.3C860 191 880 190 890 189.5L900 189L900 0L890 0C880 0 860 0 840 0C820 0 800 0 780 0C760 0 740 0 720 0C700 0 680 0 660 0C640 0 620 0 600 0C580 0 560 0 540 0C520 0 500 0 480 0C460 0 440 0 420 0C400 0 380 0 360 0C340 0 320 0 300 0C280 0 260 0 240 0C220 0 200 0 180 0C160 0 140 0 120 0C100 0 80 0 60 0C40 0 20 0 10 0L0 0Z" fill="#f1b6c5"></path><path d="M0 152L10 153.3C20 154.7 40 157.3 60 159.8C80 162.3 100 164.7 120 165.7C140 166.7 160 166.3 180 167.2C200 168 220 170 240 168C260 166 280 160 300 157.8C320 155.7 340 157.3 360 156.8C380 156.3 400 153.7 420 154.8C440 156 460 161 480 163.8C500 166.7 520 167.3 540 165.5C560 163.7 580 159.3 600 156C620 152.7 640 150.3 660 153.2C680 156 700 164 720 167.3C740 170.7 760 169.3 780 167.5C800 165.7 820 163.3 840 160.8C860 158.3 880 155.7 890 154.3L900 153L900 0L890 0C880 0 860 0 840 0C820 0 800 0 780 0C760 0 740 0 720 0C700 0 680 0 660 0C640 0 620 0 600 0C580 0 560 0 540 0C520 0 500 0 480 0C460 0 440 0 420 0C400 0 380 0 360 0C340 0 320 0 300 0C280 0 260 0 240 0C220 0 200 0 180 0C160 0 140 0 120 0C100 0 80 0 60 0C40 0 20 0 10 0L0 0Z" fill="#eda4b7"></path><path d="M0 139L10 140.2C20 141.3 40 143.7 60 143.8C80 144 100 142 120 139.5C140 137 160 134 180 131.7C200 129.3 220 127.7 240 131C260 134.3 280 142.7 300 146.3C320 150 340 149 360 145.2C380 141.3 400 134.7 420 131.7C440 128.7 460 129.3 480 130.7C500 132 520 134 540 135.7C560 137.3 580 138.7 600 137.5C620 136.3 640 132.7 660 131.3C680 130 700 131 720 131.2C740 131.3 760 130.7 780 131.8C800 133 820 136 840 137C860 138 880 137 890 136.5L900 136L900 0L890 0C880 0 860 0 840 0C820 0 800 0 780 0C760 0 740 0 720 0C700 0 680 0 660 0C640 0 620 0 600 0C580 0 560 0 540 0C520 0 500 0 480 0C460 0 440 0 420 0C400 0 380 0 360 0C340 0 320 0 300 0C280 0 260 0 240 0C220 0 200 0 180 0C160 0 140 0 120 0C100 0 80 0 60 0C40 0 20 0 10 0L0 0Z" fill="#e792a9"></path><path d="M0 114L10 112C20 110 40 106 60 106.8C80 107.7 100 113.3 120 114.2C140 115 160 111 180 111.3C200 111.7 220 116.3 240 117C260 117.7 280 114.3 300 112.7C320 111 340 111 360 111C380 111 400 111 420 109.3C440 107.7 460 104.3 480 104C500 103.7 520 106.3 540 109.8C560 113.3 580 117.7 600 116.8C620 116 640 110 660 109.5C680 109 700 114 720 115.5C740 117 760 115 780 112.3C800 109.7 820 106.3 840 105.3C860 104.3 880 105.7 890 106.3L900 107L900 0L890 0C880 0 860 0 840 0C820 0 800 0 780 0C760 0 740 0 720 0C700 0 680 0 660 0C640 0 620 0 600 0C580 0 560 0 540 0C520 0 500 0 480 0C460 0 440 0 420 0C400 0 380 0 360 0C340 0 320 0 300 0C280 0 260 0 240 0C220 0 200 0 180 0C160 0 140 0 120 0C100 0 80 0 60 0C40 0 20 0 10 0L0 0Z" fill="#e27f9c"></path><path d="M0 80L10 81.2C20 82.3 40 84.7 60 86.3C80 88 100 89 120 87.7C140 86.3 160 82.7 180 81.8C200 81 220 83 240 84.8C260 86.7 280 88.3 300 91.2C320 94 340 98 360 99.8C380 101.7 400 101.3 420 99.7C440 98 460 95 480 92.5C500 90 520 88 540 86.2C560 84.3 580 82.7 600 81.3C620 80 640 79 660 78.5C680 78 700 78 720 82.5C740 87 760 96 780 96.2C800 96.3 820 87.7 840 85C860 82.3 880 85.7 890 87.3L900 89L900 0L890 0C880 0 860 0 840 0C820 0 800 0 780 0C760 0 740 0 720 0C700 0 680 0 660 0C640 0 620 0 600 0C580 0 560 0 540 0C520 0 500 0 480 0C460 0 440 0 420 0C400 0 380 0 360 0C340 0 320 0 300 0C280 0 260 0 240 0C220 0 200 0 180 0C160 0 140 0 120 0C100 0 80 0 60 0C40 0 20 0 10 0L0 0Z" fill="#dc6c8e"></path><path d="M0 77L10 75.3C20 73.7 40 70.3 60 68.8C80 67.3 100 67.7 120 68.8C140 70 160 72 180 73C200 74 220 74 240 72.7C260 71.3 280 68.7 300 67C320 65.3 340 64.7 360 64.5C380 64.3 400 64.7 420 65.3C440 66 460 67 480 69.7C500 72.3 520 76.7 540 75.3C560 74 580 67 600 65.7C620 64.3 640 68.7 660 72.3C680 76 700 79 720 78.8C740 78.7 760 75.3 780 71.7C800 68 820 64 840 63.8C860 63.7 880 67.3 890 69.2L900 71L900 0L890 0C880 0 860 0 840 0C820 0 800 0 780 0C760 0 740 0 720 0C700 0 680 0 660 0C640 0 620 0 600 0C580 0 560 0 540 0C520 0 500 0 480 0C460 0 440 0 420 0C400 0 380 0 360 0C340 0 320 0 300 0C280 0 260 0 240 0C220 0 200 0 180 0C160 0 140 0 120 0C100 0 80 0 60 0C40 0 20 0 10 0L0 0Z" fill="#d55781"></path><path d="M0 45L10 47.3C20 49.7 40 54.3 60 54.5C80 54.7 100 50.3 120 50.3C140 50.3 160 54.7 180 54.3C200 54 220 49 240 44.8C260 40.7 280 37.3 300 35.3C320 33.3 340 32.7 360 33.5C380 34.3 400 36.7 420 41C440 45.3 460 51.7 480 53C500 54.3 520 50.7 540 49.7C560 48.7 580 50.3 600 49C620 47.7 640 43.3 660 42.5C680 41.7 700 44.3 720 43.7C740 43 760 39 780 39.5C800 40 820 45 840 47.5C860 50 880 50 890 50L900 50L900 0L890 0C880 0 860 0 840 0C820 0 800 0 780 0C760 0 740 0 720 0C700 0 680 0 660 0C640 0 620 0 600 0C580 0 560 0 540 0C520 0 500 0 480 0C460 0 440 0 420 0C400 0 380 0 360 0C340 0 320 0 300 0C280 0 260 0 240 0C220 0 200 0 180 0C160 0 140 0 120 0C100 0 80 0 60 0C40 0 20 0 10 0L0 0Z" fill="#ce4074"></path><path d="M0 30L10 29.2C20 28.3 40 26.7 60 26.7C80 26.7 100 28.3 120 30C140 31.7 160 33.3 180 30C200 26.7 220 18.3 240 15.3C260 12.3 280 14.7 300 17C320 19.3 340 21.7 360 20.8C380 20 400 16 420 16.2C440 16.3 460 20.7 480 22.3C500 24 520 23 540 24.2C560 25.3 580 28.7 600 28C620 27.3 640 22.7 660 22.7C680 22.7 700 27.3 720 26.7C740 26 760 20 780 19.5C800 19 820 24 840 26.8C860 29.7 880 30.3 890 30.7L900 31L900 0L890 0C880 0 860 0 840 0C820 0 800 0 780 0C760 0 740 0 720 0C700 0 680 0 660 0C640 0 620 0 600 0C580 0 560 0 540 0C520 0 500 0 480 0C460 0 440 0 420 0C400 0 380 0 360 0C340 0 320 0 300 0C280 0 260 0 240 0C220 0 200 0 180 0C160 0 140 0 120 0C100 0 80 0 60 0C40 0 20 0 10 0L0 0Z" fill="#c62368"></path></svg>