<svg id="visual" viewBox="0 0 900 300" width="900" height="300" xmlns="http://www.w3.org/2000/svg" xmlns:xlink="http://www.w3.org/1999/xlink" version="1.1"><rect x="0" y="0" width="900" height="300" fill="#001220"></rect><path d="M0 76L45 139L90 115L135 127L180 109L225 138L270 123L315 139L360 106L405 177L450 177L495 72L540 86L585 131L630 101L675 99L720 144L765 81L810 144L855 88L900 171L900 301L855 301L810 301L765 301L720 301L675 301L630 301L585 301L540 301L495 301L450 301L405 301L360 301L315 301L270 301L225 301L180 301L135 301L90 301L45 301L0 301Z" fill="#cccccc"></path><path d="M0 139L45 206L90 146L135 182L180 182L225 175L270 147L315 194L360 147L405 177L450 206L495 145L540 168L585 118L630 179L675 201L720 194L765 160L810 171L855 110L900 134L900 301L855 301L810 301L765 301L720 301L675 301L630 301L585 301L540 301L495 301L450 301L405 301L360 301L315 301L270 301L225 301L180 301L135 301L90 301L45 301L0 301Z" fill="#d0a8b2"></path><path d="M0 191L45 217L90 178L135 221L180 195L225 184L270 226L315 169L360 233L405 225L450 195L495 187L540 151L585 213L630 170L675 218L720 214L765 151L810 151L855 174L900 213L900 301L855 301L810 301L765 301L720 301L675 301L630 301L585 301L540 301L495 301L450 301L405 301L360 301L315 301L270 301L225 301L180 301L135 301L90 301L45 301L0 301Z" fill="#d08398"></path><path d="M0 191L45 222L90 190L135 250L180 202L225 244L270 196L315 231L360 225L405 188L450 227L495 253L540 191L585 204L630 251L675 251L720 188L765 204L810 239L855 199L900 236L900 301L855 301L810 301L765 301L720 301L675 301L630 301L585 301L540 301L495 301L450 301L405 301L360 301L315 301L270 301L225 301L180 301L135 301L90 301L45 301L0 301Z" fill="#cd5b7f"></path><path d="M0 258L45 240L90 260L135 243L180 232L225 264L270 255L315 259L360 265L405 274L450 239L495 229L540 266L585 257L630 261L675 238L720 274L765 239L810 240L855 230L900 250L900 301L855 301L810 301L765 301L720 301L675 301L630 301L585 301L540 301L495 301L450 301L405 301L360 301L315 301L270 301L225 301L180 301L135 301L90 301L45 301L0 301Z" fill="#c62368"></path></svg>