<svg id="visual" viewBox="0 0 540 960" width="540" height="960" xmlns="http://www.w3.org/2000/svg" xmlns:xlink="http://www.w3.org/1999/xlink" version="1.1"><g stroke-width="1" stroke-linejoin="bevel"><path d="M277 461L341.5 513L338.5 448Z" fill="#af256e" stroke="#af256e"></path><path d="M277 461L298 540L341.5 513Z" fill="#071931" stroke="#071931"></path><path d="M298 540L322.5 552L341.5 513Z" fill="#c62368" stroke="#c62368"></path><path d="M431 518L396 471L341.5 513Z" fill="#af256e" stroke="#af256e"></path><path d="M341.5 513L396 471L338.5 448Z" fill="#7f2a6f" stroke="#7f2a6f"></path><path d="M338.5 448L250 398L277 461Z" fill="#c62368" stroke="#c62368"></path><path d="M277 461L195.5 470L298 540Z" fill="#001122" stroke="#001122"></path><path d="M354.5 360L250 398L338.5 448Z" fill="#c62368" stroke="#c62368"></path><path d="M396 471L383 401L338.5 448Z" fill="#4f2b64" stroke="#4f2b64"></path><path d="M250 398L229.5 402L277 461Z" fill="#af256e" stroke="#af256e"></path><path d="M229.5 402L195.5 470L277 461Z" fill="#001122" stroke="#001122"></path><path d="M322.5 552L398 567L341.5 513Z" fill="#39295a" stroke="#39295a"></path><path d="M398 567L431 518L341.5 513Z" fill="#25254e" stroke="#25254e"></path><path d="M396 471L456.5 420L383 401Z" fill="#c62368" stroke="#c62368"></path><path d="M209.5 598L269 599L298 540Z" fill="#001122" stroke="#001122"></path><path d="M298 540L269 599L322.5 552Z" fill="#001122" stroke="#001122"></path><path d="M322.5 552L406 637L398 567Z" fill="#001122" stroke="#001122"></path><path d="M383 401L354.5 360L338.5 448Z" fill="#39295a" stroke="#39295a"></path><path d="M250 398L253 343L229.5 402Z" fill="#001122" stroke="#001122"></path><path d="M463.5 558L442.5 508L431 518Z" fill="#071931" stroke="#071931"></path><path d="M431 518L442.5 508L396 471Z" fill="#af256e" stroke="#af256e"></path><path d="M195.5 470L177.5 520L298 540Z" fill="#7f2a6f" stroke="#7f2a6f"></path><path d="M354.5 360L253 343L250 398Z" fill="#141f40" stroke="#141f40"></path><path d="M229.5 402L157 430L195.5 470Z" fill="#071931" stroke="#071931"></path><path d="M442.5 508L456.5 420L396 471Z" fill="#af256e" stroke="#af256e"></path><path d="M383 401L402 339L354.5 360Z" fill="#c62368" stroke="#c62368"></path><path d="M177.5 520L209.5 598L298 540Z" fill="#af256e" stroke="#af256e"></path><path d="M123 396L157 430L229.5 402Z" fill="#141f40" stroke="#141f40"></path><path d="M195.5 470L157 430L177.5 520Z" fill="#982870" stroke="#982870"></path><path d="M402 339L317.5 316L354.5 360Z" fill="#982870" stroke="#982870"></path><path d="M354.5 360L317.5 316L253 343Z" fill="#071931" stroke="#071931"></path><path d="M446.5 363L402 339L383 401Z" fill="#39295a" stroke="#39295a"></path><path d="M406 637L463.5 558L398 567Z" fill="#25254e" stroke="#25254e"></path><path d="M398 567L463.5 558L431 518Z" fill="#7f2a6f" stroke="#7f2a6f"></path><path d="M442.5 508L540 463L456.5 420Z" fill="#141f40" stroke="#141f40"></path><path d="M456.5 420L446.5 363L383 401Z" fill="#001122" stroke="#001122"></path><path d="M316.5 669L406 637L322.5 552Z" fill="#7f2a6f" stroke="#7f2a6f"></path><path d="M316.5 669L322.5 552L269 599Z" fill="#982870" stroke="#982870"></path><path d="M136 601L198.5 627L209.5 598Z" fill="#c62368" stroke="#c62368"></path><path d="M209.5 598L244 656L269 599Z" fill="#4f2b64" stroke="#4f2b64"></path><path d="M136 601L209.5 598L177.5 520Z" fill="#7f2a6f" stroke="#7f2a6f"></path><path d="M272 681L316.5 669L269 599Z" fill="#982870" stroke="#982870"></path><path d="M198.5 627L244 656L209.5 598Z" fill="#141f40" stroke="#141f40"></path><path d="M157 430L126 529L177.5 520Z" fill="#672c6b" stroke="#672c6b"></path><path d="M198.5 675L272 681L244 656Z" fill="#141f40" stroke="#141f40"></path><path d="M244 656L272 681L269 599Z" fill="#071931" stroke="#071931"></path><path d="M145 322L123 396L229.5 402Z" fill="#25254e" stroke="#25254e"></path><path d="M157 430L84.5 522L126 529Z" fill="#071931" stroke="#071931"></path><path d="M145 322L229.5 402L253 343Z" fill="#672c6b" stroke="#672c6b"></path><path d="M126 529L136 601L177.5 520Z" fill="#39295a" stroke="#39295a"></path><path d="M198.5 627L198.5 675L244 656Z" fill="#af256e" stroke="#af256e"></path><path d="M224.5 254L210.5 291L253 343Z" fill="#25254e" stroke="#25254e"></path><path d="M145 655L198.5 675L198.5 627Z" fill="#af256e" stroke="#af256e"></path><path d="M540 570L540 483L463.5 558Z" fill="#25254e" stroke="#25254e"></path><path d="M463.5 558L540 483L442.5 508Z" fill="#982870" stroke="#982870"></path><path d="M456.5 420L540 380L446.5 363Z" fill="#af256e" stroke="#af256e"></path><path d="M540 483L540 463L442.5 508Z" fill="#672c6b" stroke="#672c6b"></path><path d="M365.5 711L406 637L316.5 669Z" fill="#7f2a6f" stroke="#7f2a6f"></path><path d="M365.5 711L404 691L406 637Z" fill="#4f2b64" stroke="#4f2b64"></path><path d="M406 637L498.5 618L463.5 558Z" fill="#af256e" stroke="#af256e"></path><path d="M484.5 687L498.5 618L406 637Z" fill="#25254e" stroke="#25254e"></path><path d="M210.5 291L145 322L253 343Z" fill="#982870" stroke="#982870"></path><path d="M63.5 435L84.5 522L157 430Z" fill="#7f2a6f" stroke="#7f2a6f"></path><path d="M126 529L54.5 572L136 601Z" fill="#39295a" stroke="#39295a"></path><path d="M63.5 435L157 430L123 396Z" fill="#071931" stroke="#071931"></path><path d="M272 681L365.5 711L316.5 669Z" fill="#25254e" stroke="#25254e"></path><path d="M385 745L365.5 711L323.5 795Z" fill="#672c6b" stroke="#672c6b"></path><path d="M402 339L409 260L317.5 316Z" fill="#7f2a6f" stroke="#7f2a6f"></path><path d="M317.5 316L224.5 254L253 343Z" fill="#982870" stroke="#982870"></path><path d="M487.5 291L409 260L402 339Z" fill="#25254e" stroke="#25254e"></path><path d="M487.5 291L402 339L446.5 363Z" fill="#af256e" stroke="#af256e"></path><path d="M136 601L145 655L198.5 627Z" fill="#001122" stroke="#001122"></path><path d="M39.5 632L145 655L136 601Z" fill="#7f2a6f" stroke="#7f2a6f"></path><path d="M498.5 618L540 570L463.5 558Z" fill="#7f2a6f" stroke="#7f2a6f"></path><path d="M274 231L224.5 254L317.5 316Z" fill="#141f40" stroke="#141f40"></path><path d="M210.5 291L116 275L145 322Z" fill="#4f2b64" stroke="#4f2b64"></path><path d="M145 322L87.5 386L123 396Z" fill="#982870" stroke="#982870"></path><path d="M409 260L313.5 236L317.5 316Z" fill="#4f2b64" stroke="#4f2b64"></path><path d="M540 463L540 380L456.5 420Z" fill="#7f2a6f" stroke="#7f2a6f"></path><path d="M313.5 236L274 231L317.5 316Z" fill="#672c6b" stroke="#672c6b"></path><path d="M87.5 386L63.5 435L123 396Z" fill="#982870" stroke="#982870"></path><path d="M145 655L163 688L198.5 675Z" fill="#c62368" stroke="#c62368"></path><path d="M198.5 675L214.5 756L272 681Z" fill="#af256e" stroke="#af256e"></path><path d="M540 380L487.5 291L446.5 363Z" fill="#af256e" stroke="#af256e"></path><path d="M406 221L321.5 218L409 260Z" fill="#001122" stroke="#001122"></path><path d="M409 260L321.5 218L313.5 236Z" fill="#672c6b" stroke="#672c6b"></path><path d="M313.5 236L291 210L274 231Z" fill="#7f2a6f" stroke="#7f2a6f"></path><path d="M404 691L484.5 687L406 637Z" fill="#071931" stroke="#071931"></path><path d="M498.5 618L540 655L540 570Z" fill="#982870" stroke="#982870"></path><path d="M501.5 757L484.5 687L404 691Z" fill="#7f2a6f" stroke="#7f2a6f"></path><path d="M540 246L470.5 261L487.5 291Z" fill="#071931" stroke="#071931"></path><path d="M487.5 291L470.5 261L409 260Z" fill="#071931" stroke="#071931"></path><path d="M321.5 218L291 210L313.5 236Z" fill="#39295a" stroke="#39295a"></path><path d="M274 231L186.5 176L224.5 254Z" fill="#982870" stroke="#982870"></path><path d="M323.5 795L365.5 711L272 681Z" fill="#39295a" stroke="#39295a"></path><path d="M365.5 711L385 745L404 691Z" fill="#001122" stroke="#001122"></path><path d="M0 529L54.5 572L84.5 522Z" fill="#4f2b64" stroke="#4f2b64"></path><path d="M84.5 522L54.5 572L126 529Z" fill="#25254e" stroke="#25254e"></path><path d="M145 655L90.5 724L163 688Z" fill="#982870" stroke="#982870"></path><path d="M470.5 261L406 221L409 260Z" fill="#141f40" stroke="#141f40"></path><path d="M321.5 218L279 111L291 210Z" fill="#672c6b" stroke="#672c6b"></path><path d="M540 683L540 655L484.5 687Z" fill="#4f2b64" stroke="#4f2b64"></path><path d="M484.5 687L540 655L498.5 618Z" fill="#25254e" stroke="#25254e"></path><path d="M224.5 254L116 275L210.5 291Z" fill="#7f2a6f" stroke="#7f2a6f"></path><path d="M145 322L55.5 329L87.5 386Z" fill="#c62368" stroke="#c62368"></path><path d="M87.5 386L0 404L63.5 435Z" fill="#af256e" stroke="#af256e"></path><path d="M186.5 176L116 275L224.5 254Z" fill="#982870" stroke="#982870"></path><path d="M540 380L540 305L487.5 291Z" fill="#39295a" stroke="#39295a"></path><path d="M116 748L214.5 756L163 688Z" fill="#001122" stroke="#001122"></path><path d="M163 688L214.5 756L198.5 675Z" fill="#c62368" stroke="#c62368"></path><path d="M214.5 756L248 770L272 681Z" fill="#39295a" stroke="#39295a"></path><path d="M116 275L55.5 329L145 322Z" fill="#001122" stroke="#001122"></path><path d="M0 582L39.5 632L54.5 572Z" fill="#4f2b64" stroke="#4f2b64"></path><path d="M501.5 757L540 683L484.5 687Z" fill="#c62368" stroke="#c62368"></path><path d="M0 452L84.5 522L63.5 435Z" fill="#4f2b64" stroke="#4f2b64"></path><path d="M54.5 572L39.5 632L136 601Z" fill="#af256e" stroke="#af256e"></path><path d="M248 770L323.5 795L272 681Z" fill="#141f40" stroke="#141f40"></path><path d="M385 745L501.5 757L404 691Z" fill="#af256e" stroke="#af256e"></path><path d="M0 404L0 452L63.5 435Z" fill="#c62368" stroke="#c62368"></path><path d="M0 452L0 529L84.5 522Z" fill="#982870" stroke="#982870"></path><path d="M116 275L67.5 279L55.5 329Z" fill="#4f2b64" stroke="#4f2b64"></path><path d="M55.5 329L0 404L87.5 386Z" fill="#982870" stroke="#982870"></path><path d="M113 193L67.5 279L116 275Z" fill="#c62368" stroke="#c62368"></path><path d="M0 308L0 404L55.5 329Z" fill="#141f40" stroke="#141f40"></path><path d="M540 305L540 246L487.5 291Z" fill="#141f40" stroke="#141f40"></path><path d="M488.5 167L413 142L406 221Z" fill="#39295a" stroke="#39295a"></path><path d="M0 529L0 582L54.5 572Z" fill="#af256e" stroke="#af256e"></path><path d="M0 732L90.5 724L39.5 632Z" fill="#4f2b64" stroke="#4f2b64"></path><path d="M39.5 632L90.5 724L145 655Z" fill="#672c6b" stroke="#672c6b"></path><path d="M183.5 816L281 814L248 770Z" fill="#071931" stroke="#071931"></path><path d="M248 770L281 814L323.5 795Z" fill="#c62368" stroke="#c62368"></path><path d="M201.5 135L186.5 176L291 210Z" fill="#7f2a6f" stroke="#7f2a6f"></path><path d="M291 210L186.5 176L274 231Z" fill="#001122" stroke="#001122"></path><path d="M413 142L321.5 218L406 221Z" fill="#7f2a6f" stroke="#7f2a6f"></path><path d="M90.5 724L116 748L163 688Z" fill="#7f2a6f" stroke="#7f2a6f"></path><path d="M409 844L501.5 757L385 745Z" fill="#672c6b" stroke="#672c6b"></path><path d="M183.5 816L248 770L214.5 756Z" fill="#001122" stroke="#001122"></path><path d="M323.5 795L339.5 831L385 745Z" fill="#672c6b" stroke="#672c6b"></path><path d="M281 814L339.5 831L323.5 795Z" fill="#141f40" stroke="#141f40"></path><path d="M159 828L183.5 816L116 748Z" fill="#af256e" stroke="#af256e"></path><path d="M0 582L0 639L39.5 632Z" fill="#982870" stroke="#982870"></path><path d="M186.5 176L113 193L116 275Z" fill="#4f2b64" stroke="#4f2b64"></path><path d="M67.5 279L0 308L55.5 329Z" fill="#c62368" stroke="#c62368"></path><path d="M488.5 167L406 221L470.5 261Z" fill="#672c6b" stroke="#672c6b"></path><path d="M540 854L540 755L501.5 757Z" fill="#4f2b64" stroke="#4f2b64"></path><path d="M501.5 757L540 755L540 683Z" fill="#c62368" stroke="#c62368"></path><path d="M0 276L0 308L67.5 279Z" fill="#672c6b" stroke="#672c6b"></path><path d="M116 748L183.5 816L214.5 756Z" fill="#c62368" stroke="#c62368"></path><path d="M355.5 905L404 875L339.5 831Z" fill="#7f2a6f" stroke="#7f2a6f"></path><path d="M159 828L116 748L85.5 829Z" fill="#672c6b" stroke="#672c6b"></path><path d="M540 246L488.5 167L470.5 261Z" fill="#7f2a6f" stroke="#7f2a6f"></path><path d="M279 111L201.5 135L291 210Z" fill="#25254e" stroke="#25254e"></path><path d="M186.5 176L141 145L113 193Z" fill="#39295a" stroke="#39295a"></path><path d="M365.5 106L279 111L321.5 218Z" fill="#141f40" stroke="#141f40"></path><path d="M404 875L409 844L339.5 831Z" fill="#7f2a6f" stroke="#7f2a6f"></path><path d="M339.5 831L409 844L385 745Z" fill="#001122" stroke="#001122"></path><path d="M48.5 186L0 276L67.5 279Z" fill="#982870" stroke="#982870"></path><path d="M201.5 135L141 145L186.5 176Z" fill="#7f2a6f" stroke="#7f2a6f"></path><path d="M113 193L48.5 186L67.5 279Z" fill="#7f2a6f" stroke="#7f2a6f"></path><path d="M189.5 80L141 145L201.5 135Z" fill="#25254e" stroke="#25254e"></path><path d="M540 246L540 178L488.5 167Z" fill="#141f40" stroke="#141f40"></path><path d="M419 87L365.5 106L413 142Z" fill="#141f40" stroke="#141f40"></path><path d="M41.5 763L116 748L90.5 724Z" fill="#39295a" stroke="#39295a"></path><path d="M263 915L339.5 831L281 814Z" fill="#071931" stroke="#071931"></path><path d="M485.5 129L413 142L488.5 167Z" fill="#982870" stroke="#982870"></path><path d="M413 142L365.5 106L321.5 218Z" fill="#af256e" stroke="#af256e"></path><path d="M0 732L41.5 763L90.5 724Z" fill="#141f40" stroke="#141f40"></path><path d="M540 178L485.5 129L488.5 167Z" fill="#25254e" stroke="#25254e"></path><path d="M60.5 149L48.5 186L113 193Z" fill="#982870" stroke="#982870"></path><path d="M0 639L0 732L39.5 632Z" fill="#25254e" stroke="#25254e"></path><path d="M355.5 905L339.5 831L263 915Z" fill="#af256e" stroke="#af256e"></path><path d="M409 844L474.5 855L501.5 757Z" fill="#982870" stroke="#982870"></path><path d="M324.5 73L262 81L279 111Z" fill="#141f40" stroke="#141f40"></path><path d="M279 111L262 81L201.5 135Z" fill="#001122" stroke="#001122"></path><path d="M141 145L60.5 149L113 193Z" fill="#001122" stroke="#001122"></path><path d="M324.5 73L279 111L365.5 106Z" fill="#25254e" stroke="#25254e"></path><path d="M404 875L474.5 855L409 844Z" fill="#672c6b" stroke="#672c6b"></path><path d="M485.5 129L419 87L413 142Z" fill="#7f2a6f" stroke="#7f2a6f"></path><path d="M419 87L324.5 73L365.5 106Z" fill="#141f40" stroke="#141f40"></path><path d="M0 809L85.5 829L41.5 763Z" fill="#4f2b64" stroke="#4f2b64"></path><path d="M41.5 763L85.5 829L116 748Z" fill="#af256e" stroke="#af256e"></path><path d="M263 915L281 814L183.5 816Z" fill="#4f2b64" stroke="#4f2b64"></path><path d="M157 69L60.5 149L141 145Z" fill="#c62368" stroke="#c62368"></path><path d="M48.5 186L0 181L0 276Z" fill="#071931" stroke="#071931"></path><path d="M157 69L189.5 80L224.5 0Z" fill="#001122" stroke="#001122"></path><path d="M262 81L189.5 80L201.5 135Z" fill="#4f2b64" stroke="#4f2b64"></path><path d="M263 915L183.5 816L192.5 917Z" fill="#982870" stroke="#982870"></path><path d="M404 875L482.5 881L474.5 855Z" fill="#001122" stroke="#001122"></path><path d="M431 960L482.5 881L404 875Z" fill="#001122" stroke="#001122"></path><path d="M474.5 855L540 854L501.5 757Z" fill="#25254e" stroke="#25254e"></path><path d="M0 145L48.5 186L60.5 149Z" fill="#7f2a6f" stroke="#7f2a6f"></path><path d="M0 145L0 181L48.5 186Z" fill="#c62368" stroke="#c62368"></path><path d="M540 178L540 110L485.5 129Z" fill="#25254e" stroke="#25254e"></path><path d="M485.5 129L498.5 79L419 87Z" fill="#982870" stroke="#982870"></path><path d="M482.5 881L540 854L474.5 855Z" fill="#c62368" stroke="#c62368"></path><path d="M192.5 917L183.5 816L159 828Z" fill="#4f2b64" stroke="#4f2b64"></path><path d="M224.5 0L189.5 80L262 81Z" fill="#7f2a6f" stroke="#7f2a6f"></path><path d="M189.5 80L157 69L141 145Z" fill="#25254e" stroke="#25254e"></path><path d="M408 0L317.5 0L324.5 73Z" fill="#25254e" stroke="#25254e"></path><path d="M540 110L498.5 79L485.5 129Z" fill="#141f40" stroke="#141f40"></path><path d="M0 732L0 796L41.5 763Z" fill="#001122" stroke="#001122"></path><path d="M141 921L192.5 917L159 828Z" fill="#982870" stroke="#982870"></path><path d="M141 921L159 828L85.5 829Z" fill="#071931" stroke="#071931"></path><path d="M0 796L0 809L41.5 763Z" fill="#39295a" stroke="#39295a"></path><path d="M0 93L0 145L60.5 149Z" fill="#7f2a6f" stroke="#7f2a6f"></path><path d="M482.5 881L540 887L540 854Z" fill="#982870" stroke="#982870"></path><path d="M477.5 960L540 887L482.5 881Z" fill="#982870" stroke="#982870"></path><path d="M431 960L404 875L355.5 905Z" fill="#141f40" stroke="#141f40"></path><path d="M540 110L540 75L498.5 79Z" fill="#af256e" stroke="#af256e"></path><path d="M408 0L324.5 73L419 87Z" fill="#001122" stroke="#001122"></path><path d="M324.5 73L263 0L262 81Z" fill="#4f2b64" stroke="#4f2b64"></path><path d="M0 809L59.5 877L85.5 829Z" fill="#141f40" stroke="#141f40"></path><path d="M277 960L327.5 960L263 915Z" fill="#672c6b" stroke="#672c6b"></path><path d="M59.5 877L141 921L85.5 829Z" fill="#25254e" stroke="#25254e"></path><path d="M277 960L263 915L192.5 917Z" fill="#25254e" stroke="#25254e"></path><path d="M263 915L327.5 960L355.5 905Z" fill="#672c6b" stroke="#672c6b"></path><path d="M176.5 960L277 960L192.5 917Z" fill="#071931" stroke="#071931"></path><path d="M408 0L419 87L496.5 0Z" fill="#25254e" stroke="#25254e"></path><path d="M317.5 0L263 0L324.5 73Z" fill="#4f2b64" stroke="#4f2b64"></path><path d="M40.5 36L0 93L60.5 149Z" fill="#071931" stroke="#071931"></path><path d="M263 0L224.5 0L262 81Z" fill="#c62368" stroke="#c62368"></path><path d="M496.5 0L419 87L498.5 79Z" fill="#141f40" stroke="#141f40"></path><path d="M327.5 960L431 960L355.5 905Z" fill="#25254e" stroke="#25254e"></path><path d="M108 960L176.5 960L141 921Z" fill="#071931" stroke="#071931"></path><path d="M141 921L176.5 960L192.5 917Z" fill="#982870" stroke="#982870"></path><path d="M40.5 36L60.5 149L157 69Z" fill="#141f40" stroke="#141f40"></path><path d="M0 809L0 872L59.5 877Z" fill="#af256e" stroke="#af256e"></path><path d="M59.5 877L108 960L141 921Z" fill="#141f40" stroke="#141f40"></path><path d="M431 960L477.5 960L482.5 881Z" fill="#7f2a6f" stroke="#7f2a6f"></path><path d="M540 75L496.5 0L498.5 79Z" fill="#25254e" stroke="#25254e"></path><path d="M41.5 960L108 960L59.5 877Z" fill="#141f40" stroke="#141f40"></path><path d="M224.5 0L115 0L157 69Z" fill="#39295a" stroke="#39295a"></path><path d="M90.5 0L40.5 36L157 69Z" fill="#af256e" stroke="#af256e"></path><path d="M477.5 960L540 960L540 887Z" fill="#7f2a6f" stroke="#7f2a6f"></path><path d="M115 0L90.5 0L157 69Z" fill="#39295a" stroke="#39295a"></path><path d="M540 75L540 0L496.5 0Z" fill="#672c6b" stroke="#672c6b"></path><path d="M0 872L41.5 960L59.5 877Z" fill="#982870" stroke="#982870"></path><path d="M0 872L0 960L41.5 960Z" fill="#982870" stroke="#982870"></path><path d="M90.5 0L0 0L40.5 36Z" fill="#c62368" stroke="#c62368"></path><path d="M40.5 36L0 0L0 93Z" fill="#141f40" stroke="#141f40"></path></g></svg>